%TF.GenerationSoftware,KiCad,Pcbnew,8.0.6*%
%TF.CreationDate,2025-11-06T23:07:29+09:00*%
%TF.ProjectId,tstick,74737469-636b-42e6-9b69-6361645f7063,rev?*%
%TF.SameCoordinates,Original*%
%TF.FileFunction,Copper,L1,Top*%
%TF.FilePolarity,Positive*%
%FSLAX46Y46*%
G04 Gerber Fmt 4.6, Leading zero omitted, Abs format (unit mm)*
G04 Created by KiCad (PCBNEW 8.0.6) date 2025-11-06 23:07:29*
%MOMM*%
%LPD*%
G01*
G04 APERTURE LIST*
G04 Aperture macros list*
%AMRoundRect*
0 Rectangle with rounded corners*
0 $1 Rounding radius*
0 $2 $3 $4 $5 $6 $7 $8 $9 X,Y pos of 4 corners*
0 Add a 4 corners polygon primitive as box body*
4,1,4,$2,$3,$4,$5,$6,$7,$8,$9,$2,$3,0*
0 Add four circle primitives for the rounded corners*
1,1,$1+$1,$2,$3*
1,1,$1+$1,$4,$5*
1,1,$1+$1,$6,$7*
1,1,$1+$1,$8,$9*
0 Add four rect primitives between the rounded corners*
20,1,$1+$1,$2,$3,$4,$5,0*
20,1,$1+$1,$4,$5,$6,$7,0*
20,1,$1+$1,$6,$7,$8,$9,0*
20,1,$1+$1,$8,$9,$2,$3,0*%
G04 Aperture macros list end*
%ADD10C,0.150000*%
%TA.AperFunction,NonConductor*%
%ADD11C,0.150000*%
%TD*%
%TA.AperFunction,ComponentPad*%
%ADD12O,1.300000X1.000000*%
%TD*%
%TA.AperFunction,ComponentPad*%
%ADD13C,2.000000*%
%TD*%
%TA.AperFunction,ComponentPad*%
%ADD14R,3.200000X2.500000*%
%TD*%
%TA.AperFunction,ComponentPad*%
%ADD15R,1.397000X1.397000*%
%TD*%
%TA.AperFunction,ComponentPad*%
%ADD16C,1.397000*%
%TD*%
%TA.AperFunction,ComponentPad*%
%ADD17O,2.750000X1.800000*%
%TD*%
%TA.AperFunction,ComponentPad*%
%ADD18C,1.500000*%
%TD*%
%TA.AperFunction,ComponentPad*%
%ADD19RoundRect,0.250000X0.300000X-0.300000X0.300000X0.300000X-0.300000X0.300000X-0.300000X-0.300000X0*%
%TD*%
%TA.AperFunction,ComponentPad*%
%ADD20C,1.100000*%
%TD*%
%TA.AperFunction,ViaPad*%
%ADD21C,0.600000*%
%TD*%
%TA.AperFunction,Conductor*%
%ADD22C,0.200000*%
%TD*%
G04 APERTURE END LIST*
D10*
D11*
X108068719Y-92814813D02*
X108068719Y-92195766D01*
X108068719Y-92195766D02*
X108449671Y-92529099D01*
X108449671Y-92529099D02*
X108449671Y-92386242D01*
X108449671Y-92386242D02*
X108497290Y-92291004D01*
X108497290Y-92291004D02*
X108544909Y-92243385D01*
X108544909Y-92243385D02*
X108640147Y-92195766D01*
X108640147Y-92195766D02*
X108878242Y-92195766D01*
X108878242Y-92195766D02*
X108973480Y-92243385D01*
X108973480Y-92243385D02*
X109021100Y-92291004D01*
X109021100Y-92291004D02*
X109068719Y-92386242D01*
X109068719Y-92386242D02*
X109068719Y-92671956D01*
X109068719Y-92671956D02*
X109021100Y-92767194D01*
X109021100Y-92767194D02*
X108973480Y-92814813D01*
X108973480Y-91767194D02*
X109021100Y-91719575D01*
X109021100Y-91719575D02*
X109068719Y-91767194D01*
X109068719Y-91767194D02*
X109021100Y-91814813D01*
X109021100Y-91814813D02*
X108973480Y-91767194D01*
X108973480Y-91767194D02*
X109068719Y-91767194D01*
X108068719Y-91386242D02*
X108068719Y-90767195D01*
X108068719Y-90767195D02*
X108449671Y-91100528D01*
X108449671Y-91100528D02*
X108449671Y-90957671D01*
X108449671Y-90957671D02*
X108497290Y-90862433D01*
X108497290Y-90862433D02*
X108544909Y-90814814D01*
X108544909Y-90814814D02*
X108640147Y-90767195D01*
X108640147Y-90767195D02*
X108878242Y-90767195D01*
X108878242Y-90767195D02*
X108973480Y-90814814D01*
X108973480Y-90814814D02*
X109021100Y-90862433D01*
X109021100Y-90862433D02*
X109068719Y-90957671D01*
X109068719Y-90957671D02*
X109068719Y-91243385D01*
X109068719Y-91243385D02*
X109021100Y-91338623D01*
X109021100Y-91338623D02*
X108973480Y-91386242D01*
X108402052Y-89910052D02*
X109068719Y-89910052D01*
X108402052Y-90338623D02*
X108925861Y-90338623D01*
X108925861Y-90338623D02*
X109021100Y-90291004D01*
X109021100Y-90291004D02*
X109068719Y-90195766D01*
X109068719Y-90195766D02*
X109068719Y-90052909D01*
X109068719Y-90052909D02*
X109021100Y-89957671D01*
X109021100Y-89957671D02*
X108973480Y-89910052D01*
X108544909Y-89100528D02*
X108544909Y-89433861D01*
X109068719Y-89433861D02*
X108068719Y-89433861D01*
X108068719Y-89433861D02*
X108068719Y-88957671D01*
X108021100Y-87862433D02*
X109306814Y-88719575D01*
X108163957Y-87576718D02*
X108116338Y-87529099D01*
X108116338Y-87529099D02*
X108068719Y-87433861D01*
X108068719Y-87433861D02*
X108068719Y-87195766D01*
X108068719Y-87195766D02*
X108116338Y-87100528D01*
X108116338Y-87100528D02*
X108163957Y-87052909D01*
X108163957Y-87052909D02*
X108259195Y-87005290D01*
X108259195Y-87005290D02*
X108354433Y-87005290D01*
X108354433Y-87005290D02*
X108497290Y-87052909D01*
X108497290Y-87052909D02*
X109068719Y-87624337D01*
X109068719Y-87624337D02*
X109068719Y-87005290D01*
X108068719Y-86100528D02*
X108068719Y-86576718D01*
X108068719Y-86576718D02*
X108544909Y-86624337D01*
X108544909Y-86624337D02*
X108497290Y-86576718D01*
X108497290Y-86576718D02*
X108449671Y-86481480D01*
X108449671Y-86481480D02*
X108449671Y-86243385D01*
X108449671Y-86243385D02*
X108497290Y-86148147D01*
X108497290Y-86148147D02*
X108544909Y-86100528D01*
X108544909Y-86100528D02*
X108640147Y-86052909D01*
X108640147Y-86052909D02*
X108878242Y-86052909D01*
X108878242Y-86052909D02*
X108973480Y-86100528D01*
X108973480Y-86100528D02*
X109021100Y-86148147D01*
X109021100Y-86148147D02*
X109068719Y-86243385D01*
X109068719Y-86243385D02*
X109068719Y-86481480D01*
X109068719Y-86481480D02*
X109021100Y-86576718D01*
X109021100Y-86576718D02*
X108973480Y-86624337D01*
X108402052Y-85719575D02*
X109068719Y-85481480D01*
X109068719Y-85481480D02*
X108402052Y-85243385D01*
D10*
D11*
X92024819Y-82904762D02*
X92024819Y-83476190D01*
X92024819Y-83190476D02*
X91024819Y-83190476D01*
X91024819Y-83190476D02*
X91167676Y-83285714D01*
X91167676Y-83285714D02*
X91262914Y-83380952D01*
X91262914Y-83380952D02*
X91310533Y-83476190D01*
X91024819Y-82285714D02*
X91024819Y-82190476D01*
X91024819Y-82190476D02*
X91072438Y-82095238D01*
X91072438Y-82095238D02*
X91120057Y-82047619D01*
X91120057Y-82047619D02*
X91215295Y-82000000D01*
X91215295Y-82000000D02*
X91405771Y-81952381D01*
X91405771Y-81952381D02*
X91643866Y-81952381D01*
X91643866Y-81952381D02*
X91834342Y-82000000D01*
X91834342Y-82000000D02*
X91929580Y-82047619D01*
X91929580Y-82047619D02*
X91977200Y-82095238D01*
X91977200Y-82095238D02*
X92024819Y-82190476D01*
X92024819Y-82190476D02*
X92024819Y-82285714D01*
X92024819Y-82285714D02*
X91977200Y-82380952D01*
X91977200Y-82380952D02*
X91929580Y-82428571D01*
X91929580Y-82428571D02*
X91834342Y-82476190D01*
X91834342Y-82476190D02*
X91643866Y-82523809D01*
X91643866Y-82523809D02*
X91405771Y-82523809D01*
X91405771Y-82523809D02*
X91215295Y-82476190D01*
X91215295Y-82476190D02*
X91120057Y-82428571D01*
X91120057Y-82428571D02*
X91072438Y-82380952D01*
X91072438Y-82380952D02*
X91024819Y-82285714D01*
X91358152Y-81095238D02*
X92024819Y-81095238D01*
X91358152Y-81523809D02*
X91881961Y-81523809D01*
X91881961Y-81523809D02*
X91977200Y-81476190D01*
X91977200Y-81476190D02*
X92024819Y-81380952D01*
X92024819Y-81380952D02*
X92024819Y-81238095D01*
X92024819Y-81238095D02*
X91977200Y-81142857D01*
X91977200Y-81142857D02*
X91929580Y-81095238D01*
X91501009Y-80285714D02*
X91501009Y-80619047D01*
X92024819Y-80619047D02*
X91024819Y-80619047D01*
X91024819Y-80619047D02*
X91024819Y-80142857D01*
X91024819Y-79095237D02*
X92024819Y-78428571D01*
X91024819Y-78428571D02*
X92024819Y-79095237D01*
X91024819Y-78142856D02*
X91024819Y-77476190D01*
X91024819Y-77476190D02*
X92024819Y-77904761D01*
X92024819Y-76523809D02*
X91548628Y-76857142D01*
X92024819Y-77095237D02*
X91024819Y-77095237D01*
X91024819Y-77095237D02*
X91024819Y-76714285D01*
X91024819Y-76714285D02*
X91072438Y-76619047D01*
X91072438Y-76619047D02*
X91120057Y-76571428D01*
X91120057Y-76571428D02*
X91215295Y-76523809D01*
X91215295Y-76523809D02*
X91358152Y-76523809D01*
X91358152Y-76523809D02*
X91453390Y-76571428D01*
X91453390Y-76571428D02*
X91501009Y-76619047D01*
X91501009Y-76619047D02*
X91548628Y-76714285D01*
X91548628Y-76714285D02*
X91548628Y-77095237D01*
D10*
D11*
X106571428Y-94024819D02*
X106000000Y-94024819D01*
X106285714Y-94024819D02*
X106285714Y-93024819D01*
X106285714Y-93024819D02*
X106190476Y-93167676D01*
X106190476Y-93167676D02*
X106095238Y-93262914D01*
X106095238Y-93262914D02*
X106000000Y-93310533D01*
X107428571Y-93358152D02*
X107428571Y-94024819D01*
X107000000Y-93358152D02*
X107000000Y-93881961D01*
X107000000Y-93881961D02*
X107047619Y-93977200D01*
X107047619Y-93977200D02*
X107142857Y-94024819D01*
X107142857Y-94024819D02*
X107285714Y-94024819D01*
X107285714Y-94024819D02*
X107380952Y-93977200D01*
X107380952Y-93977200D02*
X107428571Y-93929580D01*
X108238095Y-93501009D02*
X107904762Y-93501009D01*
X107904762Y-94024819D02*
X107904762Y-93024819D01*
X107904762Y-93024819D02*
X108380952Y-93024819D01*
X109428572Y-93024819D02*
X110095238Y-94024819D01*
X110095238Y-93024819D02*
X109428572Y-94024819D01*
X110380953Y-93024819D02*
X111047619Y-93024819D01*
X111047619Y-93024819D02*
X110619048Y-94024819D01*
X112000000Y-94024819D02*
X111666667Y-93548628D01*
X111428572Y-94024819D02*
X111428572Y-93024819D01*
X111428572Y-93024819D02*
X111809524Y-93024819D01*
X111809524Y-93024819D02*
X111904762Y-93072438D01*
X111904762Y-93072438D02*
X111952381Y-93120057D01*
X111952381Y-93120057D02*
X112000000Y-93215295D01*
X112000000Y-93215295D02*
X112000000Y-93358152D01*
X112000000Y-93358152D02*
X111952381Y-93453390D01*
X111952381Y-93453390D02*
X111904762Y-93501009D01*
X111904762Y-93501009D02*
X111809524Y-93548628D01*
X111809524Y-93548628D02*
X111428572Y-93548628D01*
D10*
D11*
X88667657Y-86755942D02*
X88620038Y-86708323D01*
X88620038Y-86708323D02*
X88572419Y-86613085D01*
X88572419Y-86613085D02*
X88572419Y-86374990D01*
X88572419Y-86374990D02*
X88620038Y-86279752D01*
X88620038Y-86279752D02*
X88667657Y-86232133D01*
X88667657Y-86232133D02*
X88762895Y-86184514D01*
X88762895Y-86184514D02*
X88858133Y-86184514D01*
X88858133Y-86184514D02*
X89000990Y-86232133D01*
X89000990Y-86232133D02*
X89572419Y-86803561D01*
X89572419Y-86803561D02*
X89572419Y-86184514D01*
X89572419Y-85755942D02*
X88572419Y-85755942D01*
X88572419Y-85755942D02*
X89286704Y-85422609D01*
X89286704Y-85422609D02*
X88572419Y-85089276D01*
X88572419Y-85089276D02*
X89572419Y-85089276D01*
D10*
D11*
X103619047Y-99024819D02*
X103047619Y-99024819D01*
X103333333Y-99024819D02*
X103333333Y-98024819D01*
X103333333Y-98024819D02*
X103238095Y-98167676D01*
X103238095Y-98167676D02*
X103142857Y-98262914D01*
X103142857Y-98262914D02*
X103047619Y-98310533D01*
X104238095Y-98024819D02*
X104333333Y-98024819D01*
X104333333Y-98024819D02*
X104428571Y-98072438D01*
X104428571Y-98072438D02*
X104476190Y-98120057D01*
X104476190Y-98120057D02*
X104523809Y-98215295D01*
X104523809Y-98215295D02*
X104571428Y-98405771D01*
X104571428Y-98405771D02*
X104571428Y-98643866D01*
X104571428Y-98643866D02*
X104523809Y-98834342D01*
X104523809Y-98834342D02*
X104476190Y-98929580D01*
X104476190Y-98929580D02*
X104428571Y-98977200D01*
X104428571Y-98977200D02*
X104333333Y-99024819D01*
X104333333Y-99024819D02*
X104238095Y-99024819D01*
X104238095Y-99024819D02*
X104142857Y-98977200D01*
X104142857Y-98977200D02*
X104095238Y-98929580D01*
X104095238Y-98929580D02*
X104047619Y-98834342D01*
X104047619Y-98834342D02*
X104000000Y-98643866D01*
X104000000Y-98643866D02*
X104000000Y-98405771D01*
X104000000Y-98405771D02*
X104047619Y-98215295D01*
X104047619Y-98215295D02*
X104095238Y-98120057D01*
X104095238Y-98120057D02*
X104142857Y-98072438D01*
X104142857Y-98072438D02*
X104238095Y-98024819D01*
X105190476Y-98024819D02*
X105285714Y-98024819D01*
X105285714Y-98024819D02*
X105380952Y-98072438D01*
X105380952Y-98072438D02*
X105428571Y-98120057D01*
X105428571Y-98120057D02*
X105476190Y-98215295D01*
X105476190Y-98215295D02*
X105523809Y-98405771D01*
X105523809Y-98405771D02*
X105523809Y-98643866D01*
X105523809Y-98643866D02*
X105476190Y-98834342D01*
X105476190Y-98834342D02*
X105428571Y-98929580D01*
X105428571Y-98929580D02*
X105380952Y-98977200D01*
X105380952Y-98977200D02*
X105285714Y-99024819D01*
X105285714Y-99024819D02*
X105190476Y-99024819D01*
X105190476Y-99024819D02*
X105095238Y-98977200D01*
X105095238Y-98977200D02*
X105047619Y-98929580D01*
X105047619Y-98929580D02*
X105000000Y-98834342D01*
X105000000Y-98834342D02*
X104952381Y-98643866D01*
X104952381Y-98643866D02*
X104952381Y-98405771D01*
X104952381Y-98405771D02*
X105000000Y-98215295D01*
X105000000Y-98215295D02*
X105047619Y-98120057D01*
X105047619Y-98120057D02*
X105095238Y-98072438D01*
X105095238Y-98072438D02*
X105190476Y-98024819D01*
X105952381Y-98358152D02*
X105952381Y-99024819D01*
X105952381Y-98453390D02*
X106000000Y-98405771D01*
X106000000Y-98405771D02*
X106095238Y-98358152D01*
X106095238Y-98358152D02*
X106238095Y-98358152D01*
X106238095Y-98358152D02*
X106333333Y-98405771D01*
X106333333Y-98405771D02*
X106380952Y-98501009D01*
X106380952Y-98501009D02*
X106380952Y-99024819D01*
X107190476Y-98501009D02*
X106857143Y-98501009D01*
X106857143Y-99024819D02*
X106857143Y-98024819D01*
X106857143Y-98024819D02*
X107333333Y-98024819D01*
X108380953Y-98024819D02*
X109047619Y-99024819D01*
X109047619Y-98024819D02*
X108380953Y-99024819D01*
X109333334Y-98024819D02*
X110000000Y-98024819D01*
X110000000Y-98024819D02*
X109571429Y-99024819D01*
X110952381Y-99024819D02*
X110619048Y-98548628D01*
X110380953Y-99024819D02*
X110380953Y-98024819D01*
X110380953Y-98024819D02*
X110761905Y-98024819D01*
X110761905Y-98024819D02*
X110857143Y-98072438D01*
X110857143Y-98072438D02*
X110904762Y-98120057D01*
X110904762Y-98120057D02*
X110952381Y-98215295D01*
X110952381Y-98215295D02*
X110952381Y-98358152D01*
X110952381Y-98358152D02*
X110904762Y-98453390D01*
X110904762Y-98453390D02*
X110857143Y-98501009D01*
X110857143Y-98501009D02*
X110761905Y-98548628D01*
X110761905Y-98548628D02*
X110380953Y-98548628D01*
D10*
D11*
X90870237Y-100024819D02*
X90298809Y-100024819D01*
X90584523Y-100024819D02*
X90584523Y-99024819D01*
X90584523Y-99024819D02*
X90489285Y-99167676D01*
X90489285Y-99167676D02*
X90394047Y-99262914D01*
X90394047Y-99262914D02*
X90298809Y-99310533D01*
X91489285Y-99024819D02*
X91584523Y-99024819D01*
X91584523Y-99024819D02*
X91679761Y-99072438D01*
X91679761Y-99072438D02*
X91727380Y-99120057D01*
X91727380Y-99120057D02*
X91774999Y-99215295D01*
X91774999Y-99215295D02*
X91822618Y-99405771D01*
X91822618Y-99405771D02*
X91822618Y-99643866D01*
X91822618Y-99643866D02*
X91774999Y-99834342D01*
X91774999Y-99834342D02*
X91727380Y-99929580D01*
X91727380Y-99929580D02*
X91679761Y-99977200D01*
X91679761Y-99977200D02*
X91584523Y-100024819D01*
X91584523Y-100024819D02*
X91489285Y-100024819D01*
X91489285Y-100024819D02*
X91394047Y-99977200D01*
X91394047Y-99977200D02*
X91346428Y-99929580D01*
X91346428Y-99929580D02*
X91298809Y-99834342D01*
X91298809Y-99834342D02*
X91251190Y-99643866D01*
X91251190Y-99643866D02*
X91251190Y-99405771D01*
X91251190Y-99405771D02*
X91298809Y-99215295D01*
X91298809Y-99215295D02*
X91346428Y-99120057D01*
X91346428Y-99120057D02*
X91394047Y-99072438D01*
X91394047Y-99072438D02*
X91489285Y-99024819D01*
X92251190Y-99358152D02*
X92251190Y-100024819D01*
X92251190Y-99453390D02*
X92298809Y-99405771D01*
X92298809Y-99405771D02*
X92394047Y-99358152D01*
X92394047Y-99358152D02*
X92536904Y-99358152D01*
X92536904Y-99358152D02*
X92632142Y-99405771D01*
X92632142Y-99405771D02*
X92679761Y-99501009D01*
X92679761Y-99501009D02*
X92679761Y-100024819D01*
X93489285Y-99501009D02*
X93155952Y-99501009D01*
X93155952Y-100024819D02*
X93155952Y-99024819D01*
X93155952Y-99024819D02*
X93632142Y-99024819D01*
X94679762Y-99024819D02*
X95346428Y-100024819D01*
X95346428Y-99024819D02*
X94679762Y-100024819D01*
X95632143Y-99024819D02*
X96298809Y-99024819D01*
X96298809Y-99024819D02*
X95870238Y-100024819D01*
X97251190Y-100024819D02*
X96917857Y-99548628D01*
X96679762Y-100024819D02*
X96679762Y-99024819D01*
X96679762Y-99024819D02*
X97060714Y-99024819D01*
X97060714Y-99024819D02*
X97155952Y-99072438D01*
X97155952Y-99072438D02*
X97203571Y-99120057D01*
X97203571Y-99120057D02*
X97251190Y-99215295D01*
X97251190Y-99215295D02*
X97251190Y-99358152D01*
X97251190Y-99358152D02*
X97203571Y-99453390D01*
X97203571Y-99453390D02*
X97155952Y-99501009D01*
X97155952Y-99501009D02*
X97060714Y-99548628D01*
X97060714Y-99548628D02*
X96679762Y-99548628D01*
D10*
D11*
X107024819Y-92380952D02*
X107024819Y-92952380D01*
X107024819Y-92666666D02*
X106024819Y-92666666D01*
X106024819Y-92666666D02*
X106167676Y-92761904D01*
X106167676Y-92761904D02*
X106262914Y-92857142D01*
X106262914Y-92857142D02*
X106310533Y-92952380D01*
X106024819Y-91761904D02*
X106024819Y-91666666D01*
X106024819Y-91666666D02*
X106072438Y-91571428D01*
X106072438Y-91571428D02*
X106120057Y-91523809D01*
X106120057Y-91523809D02*
X106215295Y-91476190D01*
X106215295Y-91476190D02*
X106405771Y-91428571D01*
X106405771Y-91428571D02*
X106643866Y-91428571D01*
X106643866Y-91428571D02*
X106834342Y-91476190D01*
X106834342Y-91476190D02*
X106929580Y-91523809D01*
X106929580Y-91523809D02*
X106977200Y-91571428D01*
X106977200Y-91571428D02*
X107024819Y-91666666D01*
X107024819Y-91666666D02*
X107024819Y-91761904D01*
X107024819Y-91761904D02*
X106977200Y-91857142D01*
X106977200Y-91857142D02*
X106929580Y-91904761D01*
X106929580Y-91904761D02*
X106834342Y-91952380D01*
X106834342Y-91952380D02*
X106643866Y-91999999D01*
X106643866Y-91999999D02*
X106405771Y-91999999D01*
X106405771Y-91999999D02*
X106215295Y-91952380D01*
X106215295Y-91952380D02*
X106120057Y-91904761D01*
X106120057Y-91904761D02*
X106072438Y-91857142D01*
X106072438Y-91857142D02*
X106024819Y-91761904D01*
X106024819Y-90809523D02*
X106024819Y-90714285D01*
X106024819Y-90714285D02*
X106072438Y-90619047D01*
X106072438Y-90619047D02*
X106120057Y-90571428D01*
X106120057Y-90571428D02*
X106215295Y-90523809D01*
X106215295Y-90523809D02*
X106405771Y-90476190D01*
X106405771Y-90476190D02*
X106643866Y-90476190D01*
X106643866Y-90476190D02*
X106834342Y-90523809D01*
X106834342Y-90523809D02*
X106929580Y-90571428D01*
X106929580Y-90571428D02*
X106977200Y-90619047D01*
X106977200Y-90619047D02*
X107024819Y-90714285D01*
X107024819Y-90714285D02*
X107024819Y-90809523D01*
X107024819Y-90809523D02*
X106977200Y-90904761D01*
X106977200Y-90904761D02*
X106929580Y-90952380D01*
X106929580Y-90952380D02*
X106834342Y-90999999D01*
X106834342Y-90999999D02*
X106643866Y-91047618D01*
X106643866Y-91047618D02*
X106405771Y-91047618D01*
X106405771Y-91047618D02*
X106215295Y-90999999D01*
X106215295Y-90999999D02*
X106120057Y-90952380D01*
X106120057Y-90952380D02*
X106072438Y-90904761D01*
X106072438Y-90904761D02*
X106024819Y-90809523D01*
X106358152Y-90047618D02*
X107024819Y-90047618D01*
X106453390Y-90047618D02*
X106405771Y-89999999D01*
X106405771Y-89999999D02*
X106358152Y-89904761D01*
X106358152Y-89904761D02*
X106358152Y-89761904D01*
X106358152Y-89761904D02*
X106405771Y-89666666D01*
X106405771Y-89666666D02*
X106501009Y-89619047D01*
X106501009Y-89619047D02*
X107024819Y-89619047D01*
X106501009Y-88809523D02*
X106501009Y-89142856D01*
X107024819Y-89142856D02*
X106024819Y-89142856D01*
X106024819Y-89142856D02*
X106024819Y-88666666D01*
X106024819Y-87619046D02*
X107024819Y-86952380D01*
X106024819Y-86952380D02*
X107024819Y-87619046D01*
X106024819Y-86666665D02*
X106024819Y-85999999D01*
X106024819Y-85999999D02*
X107024819Y-86428570D01*
X107024819Y-85047618D02*
X106548628Y-85380951D01*
X107024819Y-85619046D02*
X106024819Y-85619046D01*
X106024819Y-85619046D02*
X106024819Y-85238094D01*
X106024819Y-85238094D02*
X106072438Y-85142856D01*
X106072438Y-85142856D02*
X106120057Y-85095237D01*
X106120057Y-85095237D02*
X106215295Y-85047618D01*
X106215295Y-85047618D02*
X106358152Y-85047618D01*
X106358152Y-85047618D02*
X106453390Y-85095237D01*
X106453390Y-85095237D02*
X106501009Y-85142856D01*
X106501009Y-85142856D02*
X106548628Y-85238094D01*
X106548628Y-85238094D02*
X106548628Y-85619046D01*
D10*
D11*
X108024819Y-87380952D02*
X108024819Y-87952380D01*
X108024819Y-87666666D02*
X107024819Y-87666666D01*
X107024819Y-87666666D02*
X107167676Y-87761904D01*
X107167676Y-87761904D02*
X107262914Y-87857142D01*
X107262914Y-87857142D02*
X107310533Y-87952380D01*
X107024819Y-86761904D02*
X107024819Y-86666666D01*
X107024819Y-86666666D02*
X107072438Y-86571428D01*
X107072438Y-86571428D02*
X107120057Y-86523809D01*
X107120057Y-86523809D02*
X107215295Y-86476190D01*
X107215295Y-86476190D02*
X107405771Y-86428571D01*
X107405771Y-86428571D02*
X107643866Y-86428571D01*
X107643866Y-86428571D02*
X107834342Y-86476190D01*
X107834342Y-86476190D02*
X107929580Y-86523809D01*
X107929580Y-86523809D02*
X107977200Y-86571428D01*
X107977200Y-86571428D02*
X108024819Y-86666666D01*
X108024819Y-86666666D02*
X108024819Y-86761904D01*
X108024819Y-86761904D02*
X107977200Y-86857142D01*
X107977200Y-86857142D02*
X107929580Y-86904761D01*
X107929580Y-86904761D02*
X107834342Y-86952380D01*
X107834342Y-86952380D02*
X107643866Y-86999999D01*
X107643866Y-86999999D02*
X107405771Y-86999999D01*
X107405771Y-86999999D02*
X107215295Y-86952380D01*
X107215295Y-86952380D02*
X107120057Y-86904761D01*
X107120057Y-86904761D02*
X107072438Y-86857142D01*
X107072438Y-86857142D02*
X107024819Y-86761904D01*
X107024819Y-85809523D02*
X107024819Y-85714285D01*
X107024819Y-85714285D02*
X107072438Y-85619047D01*
X107072438Y-85619047D02*
X107120057Y-85571428D01*
X107120057Y-85571428D02*
X107215295Y-85523809D01*
X107215295Y-85523809D02*
X107405771Y-85476190D01*
X107405771Y-85476190D02*
X107643866Y-85476190D01*
X107643866Y-85476190D02*
X107834342Y-85523809D01*
X107834342Y-85523809D02*
X107929580Y-85571428D01*
X107929580Y-85571428D02*
X107977200Y-85619047D01*
X107977200Y-85619047D02*
X108024819Y-85714285D01*
X108024819Y-85714285D02*
X108024819Y-85809523D01*
X108024819Y-85809523D02*
X107977200Y-85904761D01*
X107977200Y-85904761D02*
X107929580Y-85952380D01*
X107929580Y-85952380D02*
X107834342Y-85999999D01*
X107834342Y-85999999D02*
X107643866Y-86047618D01*
X107643866Y-86047618D02*
X107405771Y-86047618D01*
X107405771Y-86047618D02*
X107215295Y-85999999D01*
X107215295Y-85999999D02*
X107120057Y-85952380D01*
X107120057Y-85952380D02*
X107072438Y-85904761D01*
X107072438Y-85904761D02*
X107024819Y-85809523D01*
X107358152Y-85047618D02*
X108024819Y-85047618D01*
X107453390Y-85047618D02*
X107405771Y-84999999D01*
X107405771Y-84999999D02*
X107358152Y-84904761D01*
X107358152Y-84904761D02*
X107358152Y-84761904D01*
X107358152Y-84761904D02*
X107405771Y-84666666D01*
X107405771Y-84666666D02*
X107501009Y-84619047D01*
X107501009Y-84619047D02*
X108024819Y-84619047D01*
X107501009Y-83809523D02*
X107501009Y-84142856D01*
X108024819Y-84142856D02*
X107024819Y-84142856D01*
X107024819Y-84142856D02*
X107024819Y-83666666D01*
X107024819Y-82619046D02*
X108024819Y-81952380D01*
X107024819Y-81952380D02*
X108024819Y-82619046D01*
X107024819Y-81666665D02*
X107024819Y-80999999D01*
X107024819Y-80999999D02*
X108024819Y-81428570D01*
X108024819Y-80047618D02*
X107548628Y-80380951D01*
X108024819Y-80619046D02*
X107024819Y-80619046D01*
X107024819Y-80619046D02*
X107024819Y-80238094D01*
X107024819Y-80238094D02*
X107072438Y-80142856D01*
X107072438Y-80142856D02*
X107120057Y-80095237D01*
X107120057Y-80095237D02*
X107215295Y-80047618D01*
X107215295Y-80047618D02*
X107358152Y-80047618D01*
X107358152Y-80047618D02*
X107453390Y-80095237D01*
X107453390Y-80095237D02*
X107501009Y-80142856D01*
X107501009Y-80142856D02*
X107548628Y-80238094D01*
X107548628Y-80238094D02*
X107548628Y-80619046D01*
D10*
D11*
X89491719Y-82890762D02*
X89491719Y-83462190D01*
X89491719Y-83176476D02*
X88491719Y-83176476D01*
X88491719Y-83176476D02*
X88634576Y-83271714D01*
X88634576Y-83271714D02*
X88729814Y-83366952D01*
X88729814Y-83366952D02*
X88777433Y-83462190D01*
X88491719Y-82271714D02*
X88491719Y-82176476D01*
X88491719Y-82176476D02*
X88539338Y-82081238D01*
X88539338Y-82081238D02*
X88586957Y-82033619D01*
X88586957Y-82033619D02*
X88682195Y-81986000D01*
X88682195Y-81986000D02*
X88872671Y-81938381D01*
X88872671Y-81938381D02*
X89110766Y-81938381D01*
X89110766Y-81938381D02*
X89301242Y-81986000D01*
X89301242Y-81986000D02*
X89396480Y-82033619D01*
X89396480Y-82033619D02*
X89444100Y-82081238D01*
X89444100Y-82081238D02*
X89491719Y-82176476D01*
X89491719Y-82176476D02*
X89491719Y-82271714D01*
X89491719Y-82271714D02*
X89444100Y-82366952D01*
X89444100Y-82366952D02*
X89396480Y-82414571D01*
X89396480Y-82414571D02*
X89301242Y-82462190D01*
X89301242Y-82462190D02*
X89110766Y-82509809D01*
X89110766Y-82509809D02*
X88872671Y-82509809D01*
X88872671Y-82509809D02*
X88682195Y-82462190D01*
X88682195Y-82462190D02*
X88586957Y-82414571D01*
X88586957Y-82414571D02*
X88539338Y-82366952D01*
X88539338Y-82366952D02*
X88491719Y-82271714D01*
X88825052Y-81509809D02*
X89491719Y-81509809D01*
X88920290Y-81509809D02*
X88872671Y-81462190D01*
X88872671Y-81462190D02*
X88825052Y-81366952D01*
X88825052Y-81366952D02*
X88825052Y-81224095D01*
X88825052Y-81224095D02*
X88872671Y-81128857D01*
X88872671Y-81128857D02*
X88967909Y-81081238D01*
X88967909Y-81081238D02*
X89491719Y-81081238D01*
X88967909Y-80271714D02*
X88967909Y-80605047D01*
X89491719Y-80605047D02*
X88491719Y-80605047D01*
X88491719Y-80605047D02*
X88491719Y-80128857D01*
X88491719Y-79081237D02*
X89491719Y-78414571D01*
X88491719Y-78414571D02*
X89491719Y-79081237D01*
X88491719Y-78128856D02*
X88491719Y-77462190D01*
X88491719Y-77462190D02*
X89491719Y-77890761D01*
X89491719Y-76509809D02*
X89015528Y-76843142D01*
X89491719Y-77081237D02*
X88491719Y-77081237D01*
X88491719Y-77081237D02*
X88491719Y-76700285D01*
X88491719Y-76700285D02*
X88539338Y-76605047D01*
X88539338Y-76605047D02*
X88586957Y-76557428D01*
X88586957Y-76557428D02*
X88682195Y-76509809D01*
X88682195Y-76509809D02*
X88825052Y-76509809D01*
X88825052Y-76509809D02*
X88920290Y-76557428D01*
X88920290Y-76557428D02*
X88967909Y-76605047D01*
X88967909Y-76605047D02*
X89015528Y-76700285D01*
X89015528Y-76700285D02*
X89015528Y-77081237D01*
D12*
%TO.P,SW21,1,A*%
%TO.N,unconnected-(SW21-A-Pad1)*%
X101641563Y-167927176D03*
%TO.P,SW21,2,B*%
%TO.N,Net-(BT1--)*%
X99141563Y-167927176D03*
%TO.P,SW21,3,C*%
%TO.N,GND*%
X96641563Y-167927176D03*
%TD*%
D13*
%TO.P,SW4,A,A*%
%TO.N,REA*%
X92500000Y-155500000D03*
%TO.P,SW4,B,B*%
%TO.N,REB*%
X92500000Y-160500000D03*
%TO.P,SW4,C,C*%
%TO.N,GND*%
X92500000Y-158000000D03*
D14*
%TO.P,SW4,MP*%
%TO.N,N/C*%
X100000000Y-152400000D03*
X100000000Y-163600000D03*
D13*
%TO.P,SW4,S1*%
X107000000Y-160500000D03*
%TO.P,SW4,S2*%
X107000000Y-155500000D03*
%TD*%
D15*
%TO.P,D1,1,K*%
%TO.N,Row0*%
X108000000Y-69190000D03*
D16*
%TO.P,D1,2,A*%
%TO.N,Net-(D1-A)*%
X108000000Y-76810000D03*
%TD*%
D17*
%TO.P,U1,1,P0.02_A0_D0*%
%TO.N,MOTION*%
X91589400Y-39434700D03*
%TO.P,U1,2,P0.03_A1_D1*%
%TO.N,Row0*%
X91589400Y-41974700D03*
%TO.P,U1,3,P0.28_A2_D2*%
%TO.N,Row1*%
X91589400Y-44514700D03*
%TO.P,U1,4,P0.29_A3_D3*%
%TO.N,Row2*%
X91589400Y-47054700D03*
%TO.P,U1,5,P0.04_A4_D4_SDA*%
%TO.N,SDIO*%
X91589400Y-49594700D03*
%TO.P,U1,6,P0.05_A5_D5_SCL*%
%TO.N,SCLK*%
X91589400Y-52134700D03*
%TO.P,U1,7,P1.11_D6_TX*%
%TO.N,unconnected-(U1-P1.11_D6_TX-Pad7)*%
X91589400Y-54674700D03*
%TO.P,U1,8,P1.12_D7_RX*%
%TO.N,CS*%
X107829400Y-54674700D03*
%TO.P,U1,9,P1.13_D8_SCK*%
%TO.N,REB*%
X107829400Y-52134700D03*
%TO.P,U1,10,P1.14_D9_MISO*%
%TO.N,REA*%
X107829400Y-49594700D03*
%TO.P,U1,11,P1.15_D10_MOSI*%
%TO.N,Col0*%
X107829400Y-47054700D03*
%TO.P,U1,12,3V3*%
%TO.N,VCC*%
X107829400Y-44514700D03*
%TO.P,U1,13,GND*%
%TO.N,GND*%
X107829400Y-41974700D03*
%TO.P,U1,14,5V*%
%TO.N,unconnected-(U1-5V-Pad14)*%
X107829400Y-39434700D03*
D18*
%TO.P,U1,15,NFC1_0.09*%
%TO.N,unconnected-(U1-NFC1_0.09-Pad15)*%
X103544800Y-56366700D03*
%TO.P,U1,16,NFC2_0.10*%
%TO.N,unconnected-(U1-NFC2_0.10-Pad16)*%
X105424400Y-56366700D03*
%TO.P,U1,20,BATT+*%
%TO.N,Bat*%
X95264400Y-46737700D03*
%TO.P,U1,21,BATT-*%
%TO.N,GND*%
X95264400Y-44832700D03*
%TD*%
D15*
%TO.P,D2,1,K*%
%TO.N,Row1*%
X89415000Y-128000000D03*
D16*
%TO.P,D2,2,A*%
%TO.N,Net-(D2-A)*%
X97035000Y-128000000D03*
%TD*%
D15*
%TO.P,D3,1,K*%
%TO.N,Row2*%
X108000000Y-140190000D03*
D16*
%TO.P,D3,2,A*%
%TO.N,Net-(D3-A)*%
X108000000Y-147810000D03*
%TD*%
D19*
%TO.P,pmw3610,1,+VCSEL*%
%TO.N,Net-(pmw3610-+VCSEL)*%
X94300000Y-95790000D03*
D20*
%TO.P,pmw3610,2,SDIO*%
%TO.N,SDIO*%
X94300000Y-94010000D03*
%TO.P,pmw3610,3,SCLK*%
%TO.N,SCLK*%
X94300000Y-92230000D03*
%TO.P,pmw3610,4,NC*%
%TO.N,unconnected-(pmw3610-NC-Pad4)*%
X94300000Y-90450000D03*
%TO.P,pmw3610,5,NCS*%
%TO.N,CS*%
X94300000Y-88670000D03*
%TO.P,pmw3610,6,VDDIO*%
%TO.N,VCC*%
X94300000Y-86890000D03*
%TO.P,pmw3610,7,NRESET*%
%TO.N,Net-(pmw3610-NRESET)*%
X94300000Y-85110000D03*
%TO.P,pmw3610,8,MOTION*%
%TO.N,MOTION*%
X94300000Y-83330000D03*
%TO.P,pmw3610,9,VCP*%
%TO.N,Net-(pmw3610-VCP)*%
X105000000Y-82440000D03*
%TO.P,pmw3610,10,PASS_T*%
%TO.N,Net-(pmw3610-+VCSEL)*%
X105000000Y-84220000D03*
%TO.P,pmw3610,11,GND*%
%TO.N,GND*%
X105000000Y-86000000D03*
%TO.P,pmw3610,12,CP*%
%TO.N,Net-(pmw3610-CP)*%
X105000000Y-87780000D03*
%TO.P,pmw3610,13,CN*%
%TO.N,Net-(pmw3610-CN)*%
X105000000Y-89560000D03*
%TO.P,pmw3610,14,VDD*%
%TO.N,+1v9*%
X105000000Y-91340000D03*
%TO.P,pmw3610,15,XYLASER*%
%TO.N,Net-(pmw3610--VCSEL)*%
X105000000Y-93120000D03*
%TO.P,pmw3610,16,-VCSEL*%
X105000000Y-94900000D03*
%TD*%
D21*
%TO.N,+1v9*%
X101368300Y-102000000D03*
%TO.N,Net-(BT1--)*%
X111199800Y-51375000D03*
%TO.N,GND*%
X107012100Y-88330000D03*
X96000000Y-107000000D03*
%TO.N,Net-(pmw3610-+VCSEL)*%
X93900000Y-102455700D03*
%TO.N,VCC*%
X102645900Y-99398200D03*
X107383200Y-101211400D03*
%TO.N,+1v9*%
X103463500Y-99659400D03*
%TO.N,Net-(D1-A)*%
X105000000Y-66000000D03*
X103000000Y-71000000D03*
%TO.N,Row0*%
X94137000Y-43043300D03*
X94451800Y-63670100D03*
%TO.N,Row1*%
X88210500Y-48176100D03*
%TO.N,Row2*%
X110000000Y-132000000D03*
X109822600Y-40704700D03*
%TO.N,REB*%
X110610400Y-57921400D03*
%TO.N,MOTION*%
X91256400Y-83776800D03*
%TO.N,CS*%
X97745800Y-61971800D03*
%TO.N,Col0*%
X89005300Y-72603400D03*
X92000000Y-110000000D03*
%TD*%
D22*
%TO.N,Net-(BT1--)*%
X102161302Y-167177176D02*
X99891563Y-167177176D01*
X111199800Y-51375000D02*
X111297800Y-51473000D01*
X111297800Y-51473000D02*
X111199800Y-51375000D01*
X111297800Y-158040678D02*
X102161302Y-167177176D01*
X111199800Y-51375000D02*
X111297800Y-51473000D01*
X111297800Y-51473000D02*
X111297800Y-158040678D01*
X99891563Y-167177176D02*
X99141563Y-167927176D01*
%TO.N,GND*%
X107329400Y-41974700D02*
X106152700Y-41974700D01*
X107012100Y-88012100D02*
X105000000Y-86000000D01*
X91200000Y-111800000D02*
X96000000Y-107000000D01*
X91200000Y-159300000D02*
X91200000Y-162485613D01*
X105866800Y-58000000D02*
X106866800Y-59000000D01*
X102000000Y-58000000D02*
X105866800Y-58000000D01*
X105751000Y-50716700D02*
X102000000Y-54467700D01*
X105751000Y-50716700D02*
X105751000Y-42376400D01*
X107012100Y-88330000D02*
X107012100Y-88012100D01*
X92500000Y-158000000D02*
X91200000Y-156700000D01*
X92500000Y-158000000D02*
X91200000Y-159300000D01*
X105000000Y-86000000D02*
X106866800Y-84133200D01*
X105751000Y-42376400D02*
X106152700Y-41974700D01*
X106866800Y-84133200D02*
X106866800Y-59000000D01*
X91200000Y-156700000D02*
X91200000Y-111800000D01*
X102000000Y-54467700D02*
X102000000Y-58000000D01*
X91200000Y-162485613D02*
X96641563Y-167927176D01*
%TO.N,Net-(pmw3610-+VCSEL)*%
X94300000Y-102055700D02*
X94300000Y-95790000D01*
X93900000Y-102455700D02*
X94300000Y-102055700D01*
%TO.N,VCC*%
X106977900Y-50933000D02*
X108802200Y-50933000D01*
X109506100Y-57038900D02*
X109205300Y-57339700D01*
X106152700Y-50107800D02*
X106977900Y-50933000D01*
X108802200Y-50933000D02*
X109506100Y-51636900D01*
X107329400Y-44514700D02*
X106152700Y-44514700D01*
X109205300Y-57339700D02*
X109205300Y-99389300D01*
X106152700Y-44514700D02*
X106152700Y-50107800D01*
X109205300Y-99389300D02*
X107383200Y-101211400D01*
X102526800Y-99398200D02*
X102645900Y-99398200D01*
X109506100Y-51636900D02*
X109506100Y-57038900D01*
%TO.N,+1v9*%
X103463500Y-99659400D02*
X103463500Y-99904800D01*
X103463500Y-99904800D02*
X101368300Y-102000000D01*
%TO.N,Net-(D1-A)*%
X103000000Y-71000000D02*
X103000000Y-68000000D01*
X103000000Y-68000000D02*
X105000000Y-66000000D01*
%TO.N,Row0*%
X94137000Y-63355300D02*
X94451800Y-63670100D01*
X94137000Y-43043300D02*
X94137000Y-63355300D01*
%TO.N,Row1*%
X88210500Y-108000000D02*
X89415000Y-109204500D01*
X89415000Y-109204500D02*
X89415000Y-128000000D01*
X88210500Y-108210500D02*
X88210500Y-108000000D01*
X88210500Y-108000000D02*
X88210500Y-48176100D01*
%TO.N,Row2*%
X110008700Y-57672300D02*
X110008700Y-130181100D01*
X110074100Y-51068900D02*
X109988900Y-50983700D01*
X109988900Y-50983700D02*
X109988900Y-50732800D01*
X109822600Y-50566500D02*
X109822600Y-40704700D01*
X110008700Y-131991300D02*
X110000000Y-132000000D01*
X109988900Y-50732800D02*
X109822600Y-50566500D01*
X110309500Y-57371500D02*
X110008700Y-57672300D01*
X110309500Y-51304300D02*
X110309500Y-57371500D01*
X109988900Y-50732800D02*
X109822600Y-50566500D01*
X110074100Y-51068900D02*
X109988900Y-50983700D01*
X110008700Y-130181100D02*
X110008700Y-131991300D01*
X110074100Y-51068900D02*
X110309500Y-51304300D01*
%TO.N,REB*%
X97287779Y-160500000D02*
X92500000Y-160500000D01*
X110610400Y-147177379D02*
X97287779Y-160500000D01*
X110610400Y-57921400D02*
X110610400Y-147177379D01*
%TO.N,REA*%
X109605300Y-99554986D02*
X109000000Y-100160286D01*
X109907800Y-57205200D02*
X109605300Y-57507700D01*
X101722093Y-155500000D02*
X92500000Y-155500000D01*
X107329400Y-49594700D02*
X108031900Y-49594700D01*
X109605300Y-57507700D02*
X109605300Y-99554986D01*
X109907800Y-51470600D02*
X109907800Y-57205200D01*
X108031900Y-49594700D02*
X109907800Y-51470600D01*
X109000000Y-148222093D02*
X101722093Y-155500000D01*
X109000000Y-100160286D02*
X109000000Y-148222093D01*
%TO.N,MOTION*%
X93266100Y-39434700D02*
X93266100Y-59565400D01*
X93266100Y-59565400D02*
X91256400Y-61575100D01*
X92089400Y-39434700D02*
X93266100Y-39434700D01*
X91256400Y-61575100D02*
X91256400Y-83776800D01*
%TO.N,SCLK*%
X89912700Y-64392500D02*
X89912700Y-52134700D01*
X90343900Y-88273900D02*
X90343900Y-64823700D01*
X92089400Y-52134700D02*
X89912700Y-52134700D01*
X90343900Y-64823700D02*
X89912700Y-64392500D01*
X94300000Y-92230000D02*
X90343900Y-88273900D01*
%TO.N,Net-(pmw3610--VCSEL)*%
X105000000Y-93120000D02*
X105000000Y-94900000D01*
%TO.N,SDIO*%
X89912700Y-89622700D02*
X94300000Y-94010000D01*
X89912700Y-65160300D02*
X89912700Y-89622700D01*
X89912700Y-49594700D02*
X89511000Y-49996400D01*
X92089400Y-49594700D02*
X89912700Y-49594700D01*
X89511000Y-49996400D02*
X89511000Y-64758600D01*
X89511000Y-64758600D02*
X89912700Y-65160300D01*
%TO.N,CS*%
X92832800Y-87202800D02*
X92832800Y-66757100D01*
X94300000Y-88670000D02*
X92832800Y-87202800D01*
X92832800Y-66757100D02*
X97618100Y-61971800D01*
X97618100Y-61971800D02*
X97745800Y-61971800D01*
%TO.N,Col0*%
X89005300Y-107245100D02*
X91760200Y-110000000D01*
X89005300Y-107245100D02*
X89005300Y-72603400D01*
X91760200Y-110000000D02*
X92000000Y-110000000D01*
%TD*%
M02*
