%TF.GenerationSoftware,KiCad,Pcbnew,8.0.6*%
%TF.CreationDate,2025-11-06T12:50:02+09:00*%
%TF.ProjectId,tstick,74737469-636b-42e6-9b69-6361645f7063,rev?*%
%TF.SameCoordinates,Original*%
%TF.FileFunction,Soldermask,Top*%
%TF.FilePolarity,Negative*%
%FSLAX46Y46*%
G04 Gerber Fmt 4.6, Leading zero omitted, Abs format (unit mm)*
G04 Created by KiCad (PCBNEW 8.0.6) date 2025-11-06 12:50:02*
%MOMM*%
%LPD*%
G01*
G04 APERTURE LIST*
G04 Aperture macros list*
%AMRoundRect*
0 Rectangle with rounded corners*
0 $1 Rounding radius*
0 $2 $3 $4 $5 $6 $7 $8 $9 X,Y pos of 4 corners*
0 Add a 4 corners polygon primitive as box body*
4,1,4,$2,$3,$4,$5,$6,$7,$8,$9,$2,$3,0*
0 Add four circle primitives for the rounded corners*
1,1,$1+$1,$2,$3*
1,1,$1+$1,$4,$5*
1,1,$1+$1,$6,$7*
1,1,$1+$1,$8,$9*
0 Add four rect primitives between the rounded corners*
20,1,$1+$1,$2,$3,$4,$5,0*
20,1,$1+$1,$4,$5,$6,$7,0*
20,1,$1+$1,$6,$7,$8,$9,0*
20,1,$1+$1,$8,$9,$2,$3,0*%
G04 Aperture macros list end*
%ADD10C,2.200000*%
%ADD11RoundRect,0.150000X-0.587500X-0.150000X0.587500X-0.150000X0.587500X0.150000X-0.587500X0.150000X0*%
%ADD12O,2.750000X1.800000*%
%ADD13C,1.500000*%
%ADD14O,1.300000X1.000000*%
%ADD15C,2.000000*%
%ADD16R,3.200000X2.500000*%
%ADD17C,1.700000*%
%ADD18C,3.000000*%
%ADD19C,4.800000*%
%ADD20C,1.000000*%
%ADD21RoundRect,0.250000X0.300000X-0.300000X0.300000X0.300000X-0.300000X0.300000X-0.300000X-0.300000X0*%
%ADD22C,1.100000*%
%ADD23R,1.397000X1.397000*%
%ADD24C,1.397000*%
G04 APERTURE END LIST*
D10*
%TO.C,Ref\u002A\u002A*%
X109550300Y-162458120D03*
%TD*%
%TO.C,Ref\u002A\u002A*%
X89675901Y-162432827D03*
%TD*%
%TO.C,Ref\u002A\u002A*%
X88645844Y-37775358D03*
%TD*%
%TO.C,Ref\u002A\u002A*%
X110400604Y-37675327D03*
%TD*%
D11*
%TO.C,U2*%
X99000000Y-100100000D03*
X99000000Y-102000000D03*
X100875000Y-101050000D03*
%TD*%
D12*
%TO.C,U1*%
X91589400Y-39434700D03*
X91589400Y-41974700D03*
X91589400Y-44514700D03*
X91589400Y-47054700D03*
X91589400Y-49594700D03*
X91589400Y-52134700D03*
X91589400Y-54674700D03*
X107829400Y-54674700D03*
X107829400Y-52134700D03*
X107829400Y-49594700D03*
X107829400Y-47054700D03*
X107829400Y-44514700D03*
X107829400Y-41974700D03*
X107829400Y-39434700D03*
D13*
X103544800Y-56366700D03*
X105424400Y-56366700D03*
X95264400Y-46737700D03*
X95264400Y-44832700D03*
%TD*%
D14*
%TO.C,SW21*%
X97249900Y-161297200D03*
X99749900Y-161297200D03*
X102249900Y-161297200D03*
%TD*%
D15*
%TO.C,SW4*%
X92506600Y-149793200D03*
X92506600Y-152293200D03*
X92506600Y-154793200D03*
D16*
X100006600Y-146693200D03*
X100006600Y-157893200D03*
D15*
X107006600Y-149793200D03*
X107006600Y-154793200D03*
%TD*%
D17*
%TO.C,SW3*%
X94464200Y-132747300D03*
D15*
X94884200Y-132747300D03*
D18*
X94964200Y-136447300D03*
X96154200Y-130207300D03*
D19*
X99964200Y-132747300D03*
D18*
X99964200Y-138647300D03*
X102504200Y-127667300D03*
D20*
X104964200Y-127197300D03*
D15*
X105044200Y-132747300D03*
D17*
X105464200Y-132747300D03*
%TD*%
%TO.C,SW2*%
X94500000Y-113550000D03*
D15*
X94920000Y-113550000D03*
D18*
X95000000Y-117250000D03*
X96190000Y-111010000D03*
D19*
X100000000Y-113550000D03*
D18*
X100000000Y-119450000D03*
X102540000Y-108470000D03*
D20*
X105000000Y-108000000D03*
D15*
X105080000Y-113550000D03*
D17*
X105500000Y-113550000D03*
%TD*%
%TO.C,SW1*%
X94420000Y-69000000D03*
D15*
X94840000Y-69000000D03*
D18*
X94920000Y-72700000D03*
X96110000Y-66460000D03*
D19*
X99920000Y-69000000D03*
D18*
X99920000Y-74900000D03*
X102460000Y-63920000D03*
D20*
X104920000Y-63450000D03*
D15*
X105000000Y-69000000D03*
D17*
X105420000Y-69000000D03*
%TD*%
D21*
%TO.C,pmw3610*%
X94300000Y-95790000D03*
D22*
X94300000Y-94010000D03*
X94300000Y-92230000D03*
X94300000Y-90450000D03*
X94300000Y-88670000D03*
X94300000Y-86890000D03*
X94300000Y-85110000D03*
X94300000Y-83330000D03*
X105000000Y-82440000D03*
X105000000Y-84220000D03*
X105000000Y-86000000D03*
X105000000Y-87780000D03*
X105000000Y-89560000D03*
X105000000Y-91340000D03*
X105000000Y-93120000D03*
X105000000Y-94900000D03*
%TD*%
D23*
%TO.C,D3*%
X108000000Y-133190000D03*
D24*
X108000000Y-140810000D03*
%TD*%
D23*
%TO.C,D2*%
X96965000Y-105000000D03*
D24*
X104585000Y-105000000D03*
%TD*%
D23*
%TO.C,D1*%
X108000000Y-69190000D03*
D24*
X108000000Y-76810000D03*
%TD*%
M02*
