M48
; DRILL file {KiCad 8.0.6} date 2025-11-06T12:50:02+0900
; FORMAT={-:-/ absolute / inch / decimal}
; #@! TF.CreationDate,2025-11-06T12:50:02+09:00
; #@! TF.GenerationSoftware,Kicad,Pcbnew,8.0.6
; #@! TF.FileFunction,NonPlated,1,2,NPTH
FMAT,2
INCH
; #@! TA.AperFunction,NonPlated,NPTH,ComponentDrill
T1C0.0394
; #@! TA.AperFunction,NonPlated,NPTH,ComponentDrill
T2C0.0669
; #@! TA.AperFunction,NonPlated,NPTH,ComponentDrill
T3C0.0787
; #@! TA.AperFunction,NonPlated,NPTH,ComponentDrill
T4C0.0866
; #@! TA.AperFunction,NonPlated,NPTH,ComponentDrill
T5C0.1181
; #@! TA.AperFunction,NonPlated,NPTH,ComponentDrill
T6C0.1890
%
G90
G05
T1
X4.1307Y-2.498
X4.1324Y-5.0078
X4.1339Y-4.252
T2
X3.7173Y-2.7165
X3.7191Y-5.2263
X3.7205Y-4.4705
X4.1504Y-2.7165
X4.1521Y-5.2263
X4.1535Y-4.4705
T3
X3.7339Y-2.7165
X3.7356Y-5.2263
X3.737Y-4.4705
X4.1339Y-2.7165
X4.1356Y-5.2263
X4.137Y-4.4705
T4
X3.49Y-1.4872
X3.5305Y-6.395
X4.313Y-6.396
X4.3465Y-1.4833
T5
X3.737Y-2.8622
X3.7387Y-5.3719
X3.7402Y-4.6161
X3.7839Y-2.6165
X3.7856Y-5.1263
X3.787Y-4.3705
X3.9339Y-2.9488
X3.9356Y-5.4586
X3.937Y-4.7028
X4.0339Y-2.5165
X4.0356Y-5.0263
X4.037Y-4.2705
T6
X3.9339Y-2.7165
X3.9356Y-5.2263
X3.937Y-4.4705
M30
