M48
; DRILL file {KiCad 8.0.6} date 2025-11-06T13:39:26+0900
; FORMAT={-:-/ absolute / inch / decimal}
; #@! TF.CreationDate,2025-11-06T13:39:26+09:00
; #@! TF.GenerationSoftware,Kicad,Pcbnew,8.0.6
; #@! TF.FileFunction,Plated,1,2,PTH
FMAT,2
INCH
; #@! TA.AperFunction,Plated,PTH,ViaDrill
T1C0.0118
; #@! TA.AperFunction,Plated,PTH,ComponentDrill
T2C0.0197
; #@! TA.AperFunction,Plated,PTH,ComponentDrill
T3C0.0276
; #@! TA.AperFunction,Plated,PTH,ComponentDrill
T4C0.0320
; #@! TA.AperFunction,Plated,PTH,ComponentDrill
T5C0.0394
; #@! TA.AperFunction,Plated,PTH,ComponentDrill
T6C0.0787
%
G90
G05
T1
X3.4729Y-1.8967
X3.5041Y-2.8584
X3.5928Y-3.2983
X3.622Y-4.3307
X3.6969Y-4.0337
X3.7062Y-1.6946
X3.7186Y-2.5067
X3.7795Y-4.2126
X3.8483Y-2.4398
X3.9023Y-3.9803
X4.0412Y-3.9133
X4.0551Y-2.7953
X4.0734Y-3.9236
X4.1339Y-2.5984
X4.2131Y-3.4776
X4.2277Y-3.9847
X4.3237Y-1.6025
X4.3307Y-5.1969
X4.3547Y-2.2804
X4.3779Y-2.0226
T3
X3.7126Y-3.2807
X3.7126Y-3.3508
X3.7126Y-3.4209
X3.7126Y-3.4909
X3.7126Y-3.561
X3.7126Y-3.6311
X3.7126Y-3.7012
X3.7126Y-3.7713
X4.1339Y-3.2457
X4.1339Y-3.3157
X4.1339Y-3.3858
X4.1339Y-3.4559
X4.1339Y-3.526
X4.1339Y-3.5961
X4.1339Y-3.6661
X4.1339Y-3.7362
T4
X3.5203Y-5.0394
X3.6256Y-1.5525
X3.6256Y-1.6525
X3.6256Y-1.7525
X3.6256Y-1.8525
X3.6256Y-1.9525
X3.6256Y-2.0525
X3.6256Y-2.1525
X3.8203Y-5.0394
X4.2256Y-1.5525
X4.2256Y-1.6525
X4.2256Y-1.7525
X4.2256Y-1.8525
X4.2256Y-1.9525
X4.2256Y-2.0525
X4.2256Y-2.1525
X4.252Y-2.724
X4.252Y-3.024
X4.252Y-5.5193
X4.252Y-5.8193
T5
X3.6417Y-6.122
X3.6417Y-6.2205
X3.6417Y-6.3189
X3.7506Y-1.7651
X3.7506Y-1.8401
X4.0766Y-2.2192
X4.1506Y-2.2192
X4.2126Y-6.122
X4.2126Y-6.3189
T2
G00X3.8107Y-6.6113
M15
G01X3.7989Y-6.6113
M16
G05
G00X3.9091Y-6.6113
M15
G01X3.8973Y-6.6113
M16
G05
G00X4.0075Y-6.6113
M15
G01X3.9957Y-6.6113
M16
G05
T6
G00X3.9213Y-6.0
M15
G01X3.9528Y-6.0
M16
G05
G00X3.9213Y-6.4409
M15
G01X3.9528Y-6.4409
M16
G05
M30
