%TF.GenerationSoftware,KiCad,Pcbnew,8.0.6*%
%TF.CreationDate,2025-11-06T23:07:29+09:00*%
%TF.ProjectId,tstick,74737469-636b-42e6-9b69-6361645f7063,rev?*%
%TF.SameCoordinates,Original*%
%TF.FileFunction,Legend,Top*%
%TF.FilePolarity,Positive*%
%FSLAX46Y46*%
G04 Gerber Fmt 4.6, Leading zero omitted, Abs format (unit mm)*
G04 Created by KiCad (PCBNEW 8.0.6) date 2025-11-06 23:07:29*
%MOMM*%
%LPD*%
G01*
G04 APERTURE LIST*
G04 Aperture macros list*
%AMRoundRect*
0 Rectangle with rounded corners*
0 $1 Rounding radius*
0 $2 $3 $4 $5 $6 $7 $8 $9 X,Y pos of 4 corners*
0 Add a 4 corners polygon primitive as box body*
4,1,4,$2,$3,$4,$5,$6,$7,$8,$9,$2,$3,0*
0 Add four circle primitives for the rounded corners*
1,1,$1+$1,$2,$3*
1,1,$1+$1,$4,$5*
1,1,$1+$1,$6,$7*
1,1,$1+$1,$8,$9*
0 Add four rect primitives between the rounded corners*
20,1,$1+$1,$2,$3,$4,$5,0*
20,1,$1+$1,$4,$5,$6,$7,0*
20,1,$1+$1,$6,$7,$8,$9,0*
20,1,$1+$1,$8,$9,$2,$3,0*%
G04 Aperture macros list end*
%ADD10C,0.150000*%
%ADD11C,0.127000*%
%ADD12R,1.397000X1.397000*%
%ADD13C,1.397000*%
%ADD14O,1.300000X1.000000*%
%ADD15C,2.000000*%
%ADD16R,3.200000X2.500000*%
%ADD17C,2.200000*%
%ADD18O,2.750000X1.800000*%
%ADD19C,1.500000*%
%ADD20C,1.700000*%
%ADD21C,3.000000*%
%ADD22C,4.800000*%
%ADD23C,1.000000*%
%ADD24RoundRect,0.250000X0.300000X-0.300000X0.300000X0.300000X-0.300000X0.300000X-0.300000X-0.300000X0*%
%ADD25C,1.100000*%
G04 APERTURE END LIST*
D10*
X106867633Y-104189180D02*
X106820014Y-104236800D01*
X106820014Y-104236800D02*
X106677157Y-104284419D01*
X106677157Y-104284419D02*
X106581919Y-104284419D01*
X106581919Y-104284419D02*
X106439062Y-104236800D01*
X106439062Y-104236800D02*
X106343824Y-104141561D01*
X106343824Y-104141561D02*
X106296205Y-104046323D01*
X106296205Y-104046323D02*
X106248586Y-103855847D01*
X106248586Y-103855847D02*
X106248586Y-103712990D01*
X106248586Y-103712990D02*
X106296205Y-103522514D01*
X106296205Y-103522514D02*
X106343824Y-103427276D01*
X106343824Y-103427276D02*
X106439062Y-103332038D01*
X106439062Y-103332038D02*
X106581919Y-103284419D01*
X106581919Y-103284419D02*
X106677157Y-103284419D01*
X106677157Y-103284419D02*
X106820014Y-103332038D01*
X106820014Y-103332038D02*
X106867633Y-103379657D01*
X107343824Y-104284419D02*
X107534300Y-104284419D01*
X107534300Y-104284419D02*
X107629538Y-104236800D01*
X107629538Y-104236800D02*
X107677157Y-104189180D01*
X107677157Y-104189180D02*
X107772395Y-104046323D01*
X107772395Y-104046323D02*
X107820014Y-103855847D01*
X107820014Y-103855847D02*
X107820014Y-103474895D01*
X107820014Y-103474895D02*
X107772395Y-103379657D01*
X107772395Y-103379657D02*
X107724776Y-103332038D01*
X107724776Y-103332038D02*
X107629538Y-103284419D01*
X107629538Y-103284419D02*
X107439062Y-103284419D01*
X107439062Y-103284419D02*
X107343824Y-103332038D01*
X107343824Y-103332038D02*
X107296205Y-103379657D01*
X107296205Y-103379657D02*
X107248586Y-103474895D01*
X107248586Y-103474895D02*
X107248586Y-103712990D01*
X107248586Y-103712990D02*
X107296205Y-103808228D01*
X107296205Y-103808228D02*
X107343824Y-103855847D01*
X107343824Y-103855847D02*
X107439062Y-103903466D01*
X107439062Y-103903466D02*
X107629538Y-103903466D01*
X107629538Y-103903466D02*
X107724776Y-103855847D01*
X107724776Y-103855847D02*
X107772395Y-103808228D01*
X107772395Y-103808228D02*
X107820014Y-103712990D01*
X111833480Y-89195766D02*
X111881100Y-89243385D01*
X111881100Y-89243385D02*
X111928719Y-89386242D01*
X111928719Y-89386242D02*
X111928719Y-89481480D01*
X111928719Y-89481480D02*
X111881100Y-89624337D01*
X111881100Y-89624337D02*
X111785861Y-89719575D01*
X111785861Y-89719575D02*
X111690623Y-89767194D01*
X111690623Y-89767194D02*
X111500147Y-89814813D01*
X111500147Y-89814813D02*
X111357290Y-89814813D01*
X111357290Y-89814813D02*
X111166814Y-89767194D01*
X111166814Y-89767194D02*
X111071576Y-89719575D01*
X111071576Y-89719575D02*
X110976338Y-89624337D01*
X110976338Y-89624337D02*
X110928719Y-89481480D01*
X110928719Y-89481480D02*
X110928719Y-89386242D01*
X110928719Y-89386242D02*
X110976338Y-89243385D01*
X110976338Y-89243385D02*
X111023957Y-89195766D01*
X110928719Y-88862432D02*
X110928719Y-88195766D01*
X110928719Y-88195766D02*
X111928719Y-88624337D01*
X94789580Y-80166666D02*
X94837200Y-80214285D01*
X94837200Y-80214285D02*
X94884819Y-80357142D01*
X94884819Y-80357142D02*
X94884819Y-80452380D01*
X94884819Y-80452380D02*
X94837200Y-80595237D01*
X94837200Y-80595237D02*
X94741961Y-80690475D01*
X94741961Y-80690475D02*
X94646723Y-80738094D01*
X94646723Y-80738094D02*
X94456247Y-80785713D01*
X94456247Y-80785713D02*
X94313390Y-80785713D01*
X94313390Y-80785713D02*
X94122914Y-80738094D01*
X94122914Y-80738094D02*
X94027676Y-80690475D01*
X94027676Y-80690475D02*
X93932438Y-80595237D01*
X93932438Y-80595237D02*
X93884819Y-80452380D01*
X93884819Y-80452380D02*
X93884819Y-80357142D01*
X93884819Y-80357142D02*
X93932438Y-80214285D01*
X93932438Y-80214285D02*
X93980057Y-80166666D01*
X93884819Y-79261904D02*
X93884819Y-79738094D01*
X93884819Y-79738094D02*
X94361009Y-79785713D01*
X94361009Y-79785713D02*
X94313390Y-79738094D01*
X94313390Y-79738094D02*
X94265771Y-79642856D01*
X94265771Y-79642856D02*
X94265771Y-79404761D01*
X94265771Y-79404761D02*
X94313390Y-79309523D01*
X94313390Y-79309523D02*
X94361009Y-79261904D01*
X94361009Y-79261904D02*
X94456247Y-79214285D01*
X94456247Y-79214285D02*
X94694342Y-79214285D01*
X94694342Y-79214285D02*
X94789580Y-79261904D01*
X94789580Y-79261904D02*
X94837200Y-79309523D01*
X94837200Y-79309523D02*
X94884819Y-79404761D01*
X94884819Y-79404761D02*
X94884819Y-79642856D01*
X94884819Y-79642856D02*
X94837200Y-79738094D01*
X94837200Y-79738094D02*
X94789580Y-79785713D01*
X108833333Y-96789580D02*
X108785714Y-96837200D01*
X108785714Y-96837200D02*
X108642857Y-96884819D01*
X108642857Y-96884819D02*
X108547619Y-96884819D01*
X108547619Y-96884819D02*
X108404762Y-96837200D01*
X108404762Y-96837200D02*
X108309524Y-96741961D01*
X108309524Y-96741961D02*
X108261905Y-96646723D01*
X108261905Y-96646723D02*
X108214286Y-96456247D01*
X108214286Y-96456247D02*
X108214286Y-96313390D01*
X108214286Y-96313390D02*
X108261905Y-96122914D01*
X108261905Y-96122914D02*
X108309524Y-96027676D01*
X108309524Y-96027676D02*
X108404762Y-95932438D01*
X108404762Y-95932438D02*
X108547619Y-95884819D01*
X108547619Y-95884819D02*
X108642857Y-95884819D01*
X108642857Y-95884819D02*
X108785714Y-95932438D01*
X108785714Y-95932438D02*
X108833333Y-95980057D01*
X109404762Y-96313390D02*
X109309524Y-96265771D01*
X109309524Y-96265771D02*
X109261905Y-96218152D01*
X109261905Y-96218152D02*
X109214286Y-96122914D01*
X109214286Y-96122914D02*
X109214286Y-96075295D01*
X109214286Y-96075295D02*
X109261905Y-95980057D01*
X109261905Y-95980057D02*
X109309524Y-95932438D01*
X109309524Y-95932438D02*
X109404762Y-95884819D01*
X109404762Y-95884819D02*
X109595238Y-95884819D01*
X109595238Y-95884819D02*
X109690476Y-95932438D01*
X109690476Y-95932438D02*
X109738095Y-95980057D01*
X109738095Y-95980057D02*
X109785714Y-96075295D01*
X109785714Y-96075295D02*
X109785714Y-96122914D01*
X109785714Y-96122914D02*
X109738095Y-96218152D01*
X109738095Y-96218152D02*
X109690476Y-96265771D01*
X109690476Y-96265771D02*
X109595238Y-96313390D01*
X109595238Y-96313390D02*
X109404762Y-96313390D01*
X109404762Y-96313390D02*
X109309524Y-96361009D01*
X109309524Y-96361009D02*
X109261905Y-96408628D01*
X109261905Y-96408628D02*
X109214286Y-96503866D01*
X109214286Y-96503866D02*
X109214286Y-96694342D01*
X109214286Y-96694342D02*
X109261905Y-96789580D01*
X109261905Y-96789580D02*
X109309524Y-96837200D01*
X109309524Y-96837200D02*
X109404762Y-96884819D01*
X109404762Y-96884819D02*
X109595238Y-96884819D01*
X109595238Y-96884819D02*
X109690476Y-96837200D01*
X109690476Y-96837200D02*
X109738095Y-96789580D01*
X109738095Y-96789580D02*
X109785714Y-96694342D01*
X109785714Y-96694342D02*
X109785714Y-96503866D01*
X109785714Y-96503866D02*
X109738095Y-96408628D01*
X109738095Y-96408628D02*
X109690476Y-96361009D01*
X109690476Y-96361009D02*
X109595238Y-96313390D01*
X92432419Y-86065466D02*
X91956228Y-86398799D01*
X92432419Y-86636894D02*
X91432419Y-86636894D01*
X91432419Y-86636894D02*
X91432419Y-86255942D01*
X91432419Y-86255942D02*
X91480038Y-86160704D01*
X91480038Y-86160704D02*
X91527657Y-86113085D01*
X91527657Y-86113085D02*
X91622895Y-86065466D01*
X91622895Y-86065466D02*
X91765752Y-86065466D01*
X91765752Y-86065466D02*
X91860990Y-86113085D01*
X91860990Y-86113085D02*
X91908609Y-86160704D01*
X91908609Y-86160704D02*
X91956228Y-86255942D01*
X91956228Y-86255942D02*
X91956228Y-86636894D01*
X92432419Y-85113085D02*
X92432419Y-85684513D01*
X92432419Y-85398799D02*
X91432419Y-85398799D01*
X91432419Y-85398799D02*
X91575276Y-85494037D01*
X91575276Y-85494037D02*
X91670514Y-85589275D01*
X91670514Y-85589275D02*
X91718133Y-85684513D01*
X106833333Y-101789580D02*
X106785714Y-101837200D01*
X106785714Y-101837200D02*
X106642857Y-101884819D01*
X106642857Y-101884819D02*
X106547619Y-101884819D01*
X106547619Y-101884819D02*
X106404762Y-101837200D01*
X106404762Y-101837200D02*
X106309524Y-101741961D01*
X106309524Y-101741961D02*
X106261905Y-101646723D01*
X106261905Y-101646723D02*
X106214286Y-101456247D01*
X106214286Y-101456247D02*
X106214286Y-101313390D01*
X106214286Y-101313390D02*
X106261905Y-101122914D01*
X106261905Y-101122914D02*
X106309524Y-101027676D01*
X106309524Y-101027676D02*
X106404762Y-100932438D01*
X106404762Y-100932438D02*
X106547619Y-100884819D01*
X106547619Y-100884819D02*
X106642857Y-100884819D01*
X106642857Y-100884819D02*
X106785714Y-100932438D01*
X106785714Y-100932438D02*
X106833333Y-100980057D01*
X107214286Y-100980057D02*
X107261905Y-100932438D01*
X107261905Y-100932438D02*
X107357143Y-100884819D01*
X107357143Y-100884819D02*
X107595238Y-100884819D01*
X107595238Y-100884819D02*
X107690476Y-100932438D01*
X107690476Y-100932438D02*
X107738095Y-100980057D01*
X107738095Y-100980057D02*
X107785714Y-101075295D01*
X107785714Y-101075295D02*
X107785714Y-101170533D01*
X107785714Y-101170533D02*
X107738095Y-101313390D01*
X107738095Y-101313390D02*
X107166667Y-101884819D01*
X107166667Y-101884819D02*
X107785714Y-101884819D01*
X93608333Y-102789580D02*
X93560714Y-102837200D01*
X93560714Y-102837200D02*
X93417857Y-102884819D01*
X93417857Y-102884819D02*
X93322619Y-102884819D01*
X93322619Y-102884819D02*
X93179762Y-102837200D01*
X93179762Y-102837200D02*
X93084524Y-102741961D01*
X93084524Y-102741961D02*
X93036905Y-102646723D01*
X93036905Y-102646723D02*
X92989286Y-102456247D01*
X92989286Y-102456247D02*
X92989286Y-102313390D01*
X92989286Y-102313390D02*
X93036905Y-102122914D01*
X93036905Y-102122914D02*
X93084524Y-102027676D01*
X93084524Y-102027676D02*
X93179762Y-101932438D01*
X93179762Y-101932438D02*
X93322619Y-101884819D01*
X93322619Y-101884819D02*
X93417857Y-101884819D01*
X93417857Y-101884819D02*
X93560714Y-101932438D01*
X93560714Y-101932438D02*
X93608333Y-101980057D01*
X94560714Y-102884819D02*
X93989286Y-102884819D01*
X94275000Y-102884819D02*
X94275000Y-101884819D01*
X94275000Y-101884819D02*
X94179762Y-102027676D01*
X94179762Y-102027676D02*
X94084524Y-102122914D01*
X94084524Y-102122914D02*
X93989286Y-102170533D01*
X109789580Y-89166666D02*
X109837200Y-89214285D01*
X109837200Y-89214285D02*
X109884819Y-89357142D01*
X109884819Y-89357142D02*
X109884819Y-89452380D01*
X109884819Y-89452380D02*
X109837200Y-89595237D01*
X109837200Y-89595237D02*
X109741961Y-89690475D01*
X109741961Y-89690475D02*
X109646723Y-89738094D01*
X109646723Y-89738094D02*
X109456247Y-89785713D01*
X109456247Y-89785713D02*
X109313390Y-89785713D01*
X109313390Y-89785713D02*
X109122914Y-89738094D01*
X109122914Y-89738094D02*
X109027676Y-89690475D01*
X109027676Y-89690475D02*
X108932438Y-89595237D01*
X108932438Y-89595237D02*
X108884819Y-89452380D01*
X108884819Y-89452380D02*
X108884819Y-89357142D01*
X108884819Y-89357142D02*
X108932438Y-89214285D01*
X108932438Y-89214285D02*
X108980057Y-89166666D01*
X108884819Y-88309523D02*
X108884819Y-88499999D01*
X108884819Y-88499999D02*
X108932438Y-88595237D01*
X108932438Y-88595237D02*
X108980057Y-88642856D01*
X108980057Y-88642856D02*
X109122914Y-88738094D01*
X109122914Y-88738094D02*
X109313390Y-88785713D01*
X109313390Y-88785713D02*
X109694342Y-88785713D01*
X109694342Y-88785713D02*
X109789580Y-88738094D01*
X109789580Y-88738094D02*
X109837200Y-88690475D01*
X109837200Y-88690475D02*
X109884819Y-88595237D01*
X109884819Y-88595237D02*
X109884819Y-88404761D01*
X109884819Y-88404761D02*
X109837200Y-88309523D01*
X109837200Y-88309523D02*
X109789580Y-88261904D01*
X109789580Y-88261904D02*
X109694342Y-88214285D01*
X109694342Y-88214285D02*
X109456247Y-88214285D01*
X109456247Y-88214285D02*
X109361009Y-88261904D01*
X109361009Y-88261904D02*
X109313390Y-88309523D01*
X109313390Y-88309523D02*
X109265771Y-88404761D01*
X109265771Y-88404761D02*
X109265771Y-88595237D01*
X109265771Y-88595237D02*
X109313390Y-88690475D01*
X109313390Y-88690475D02*
X109361009Y-88738094D01*
X109361009Y-88738094D02*
X109456247Y-88785713D01*
X110789580Y-84166666D02*
X110837200Y-84214285D01*
X110837200Y-84214285D02*
X110884819Y-84357142D01*
X110884819Y-84357142D02*
X110884819Y-84452380D01*
X110884819Y-84452380D02*
X110837200Y-84595237D01*
X110837200Y-84595237D02*
X110741961Y-84690475D01*
X110741961Y-84690475D02*
X110646723Y-84738094D01*
X110646723Y-84738094D02*
X110456247Y-84785713D01*
X110456247Y-84785713D02*
X110313390Y-84785713D01*
X110313390Y-84785713D02*
X110122914Y-84738094D01*
X110122914Y-84738094D02*
X110027676Y-84690475D01*
X110027676Y-84690475D02*
X109932438Y-84595237D01*
X109932438Y-84595237D02*
X109884819Y-84452380D01*
X109884819Y-84452380D02*
X109884819Y-84357142D01*
X109884819Y-84357142D02*
X109932438Y-84214285D01*
X109932438Y-84214285D02*
X109980057Y-84166666D01*
X109884819Y-83833332D02*
X109884819Y-83214285D01*
X109884819Y-83214285D02*
X110265771Y-83547618D01*
X110265771Y-83547618D02*
X110265771Y-83404761D01*
X110265771Y-83404761D02*
X110313390Y-83309523D01*
X110313390Y-83309523D02*
X110361009Y-83261904D01*
X110361009Y-83261904D02*
X110456247Y-83214285D01*
X110456247Y-83214285D02*
X110694342Y-83214285D01*
X110694342Y-83214285D02*
X110789580Y-83261904D01*
X110789580Y-83261904D02*
X110837200Y-83309523D01*
X110837200Y-83309523D02*
X110884819Y-83404761D01*
X110884819Y-83404761D02*
X110884819Y-83690475D01*
X110884819Y-83690475D02*
X110837200Y-83785713D01*
X110837200Y-83785713D02*
X110789580Y-83833332D01*
X92256480Y-80152666D02*
X92304100Y-80200285D01*
X92304100Y-80200285D02*
X92351719Y-80343142D01*
X92351719Y-80343142D02*
X92351719Y-80438380D01*
X92351719Y-80438380D02*
X92304100Y-80581237D01*
X92304100Y-80581237D02*
X92208861Y-80676475D01*
X92208861Y-80676475D02*
X92113623Y-80724094D01*
X92113623Y-80724094D02*
X91923147Y-80771713D01*
X91923147Y-80771713D02*
X91780290Y-80771713D01*
X91780290Y-80771713D02*
X91589814Y-80724094D01*
X91589814Y-80724094D02*
X91494576Y-80676475D01*
X91494576Y-80676475D02*
X91399338Y-80581237D01*
X91399338Y-80581237D02*
X91351719Y-80438380D01*
X91351719Y-80438380D02*
X91351719Y-80343142D01*
X91351719Y-80343142D02*
X91399338Y-80200285D01*
X91399338Y-80200285D02*
X91446957Y-80152666D01*
X91685052Y-79295523D02*
X92351719Y-79295523D01*
X91304100Y-79533618D02*
X92018385Y-79771713D01*
X92018385Y-79771713D02*
X92018385Y-79152666D01*
%TO.C,BT1*%
D11*
X101963500Y-52600000D02*
G75*
G02*
X101836500Y-52600000I-63500J0D01*
G01*
X101836500Y-52600000D02*
G75*
G02*
X101963500Y-52600000I63500J0D01*
G01*
D10*
%TO.C,SW21*%
X94641563Y-166977176D02*
X103641563Y-166977176D01*
X94641563Y-170477176D02*
X94641563Y-166977176D01*
X103641563Y-166977176D02*
X103641563Y-170477176D01*
X103641563Y-170477176D02*
X94641563Y-170477176D01*
%TO.C,SW4*%
X94443750Y-152443750D02*
X94443750Y-153237500D01*
X94443750Y-162762500D02*
X94443750Y-163556250D01*
X94443750Y-163556250D02*
X95237500Y-163556250D01*
X95237500Y-152443750D02*
X94443750Y-152443750D01*
X104762500Y-152443750D02*
X105556250Y-152443750D01*
X104762500Y-163556250D02*
X105556250Y-163556250D01*
X105556250Y-152443750D02*
X105556250Y-153237500D01*
X105556250Y-163556250D02*
X105556250Y-162762500D01*
%TD*%
D12*
%TO.C,D1*%
X108000000Y-69190000D03*
D13*
X108000000Y-76810000D03*
%TD*%
D12*
%TO.C,D2*%
X89415000Y-128000000D03*
D13*
X97035000Y-128000000D03*
%TD*%
D12*
%TO.C,D3*%
X108000000Y-140190000D03*
D13*
X108000000Y-147810000D03*
%TD*%
%LPC*%
D14*
%TO.C,SW21*%
X101641563Y-167927176D03*
X99141563Y-167927176D03*
X96641563Y-167927176D03*
%TD*%
D15*
%TO.C,SW4*%
X92500000Y-155500000D03*
X92500000Y-160500000D03*
X92500000Y-158000000D03*
D16*
X100000000Y-152400000D03*
X100000000Y-163600000D03*
D15*
X107000000Y-160500000D03*
X107000000Y-155500000D03*
%TD*%
D12*
%TO.C,D1*%
X108000000Y-69190000D03*
D13*
X108000000Y-76810000D03*
%TD*%
D17*
%TO.C,Ref\u002A\u002A*%
X88645844Y-37775358D03*
%TD*%
D18*
%TO.C,U1*%
X91589400Y-39434700D03*
X91589400Y-41974700D03*
X91589400Y-44514700D03*
X91589400Y-47054700D03*
X91589400Y-49594700D03*
X91589400Y-52134700D03*
X91589400Y-54674700D03*
X107829400Y-54674700D03*
X107829400Y-52134700D03*
X107829400Y-49594700D03*
X107829400Y-47054700D03*
X107829400Y-44514700D03*
X107829400Y-41974700D03*
X107829400Y-39434700D03*
D19*
X103544800Y-56366700D03*
X105424400Y-56366700D03*
X95264400Y-46737700D03*
X95264400Y-44832700D03*
%TD*%
D20*
%TO.C,SW3*%
X94464200Y-141000000D03*
D15*
X94884200Y-141000000D03*
D21*
X94964200Y-144700000D03*
X96154200Y-138460000D03*
D22*
X99964200Y-141000000D03*
D21*
X99964200Y-146900000D03*
X102504200Y-135920000D03*
D23*
X104964200Y-135450000D03*
D15*
X105044200Y-141000000D03*
D20*
X105464200Y-141000000D03*
%TD*%
D17*
%TO.C,Ref\u002A\u002A*%
X89765600Y-168156779D03*
%TD*%
D12*
%TO.C,D2*%
X89415000Y-128000000D03*
D13*
X97035000Y-128000000D03*
%TD*%
D20*
%TO.C,SW2*%
X94485623Y-119831343D03*
D15*
X94905623Y-119831343D03*
D21*
X94985623Y-123531343D03*
X96175623Y-117291343D03*
D22*
X99985623Y-119831343D03*
D21*
X99985623Y-125731343D03*
X102525623Y-114751343D03*
D23*
X104985623Y-114281343D03*
D15*
X105065623Y-119831343D03*
D20*
X105485623Y-119831343D03*
%TD*%
D17*
%TO.C,Ref\u002A\u002A*%
X110400604Y-37675327D03*
%TD*%
D12*
%TO.C,D3*%
X108000000Y-140190000D03*
D13*
X108000000Y-147810000D03*
%TD*%
D20*
%TO.C,SW1*%
X94420000Y-69000000D03*
D15*
X94840000Y-69000000D03*
D21*
X94920000Y-72700000D03*
X96110000Y-66460000D03*
D22*
X99920000Y-69000000D03*
D21*
X99920000Y-74900000D03*
X102460000Y-63920000D03*
D23*
X104920000Y-63450000D03*
D15*
X105000000Y-69000000D03*
D20*
X105420000Y-69000000D03*
%TD*%
D17*
%TO.C,Ref\u002A\u002A*%
X109337922Y-168391178D03*
%TD*%
D24*
%TO.C,pmw3610*%
X94300000Y-95790000D03*
D25*
X94300000Y-94010000D03*
X94300000Y-92230000D03*
X94300000Y-90450000D03*
X94300000Y-88670000D03*
X94300000Y-86890000D03*
X94300000Y-85110000D03*
X94300000Y-83330000D03*
X105000000Y-82440000D03*
X105000000Y-84220000D03*
X105000000Y-86000000D03*
X105000000Y-87780000D03*
X105000000Y-89560000D03*
X105000000Y-91340000D03*
X105000000Y-93120000D03*
X105000000Y-94900000D03*
%TD*%
%LPD*%
M02*
