%TF.GenerationSoftware,KiCad,Pcbnew,8.0.6*%
%TF.CreationDate,2025-11-06T12:50:02+09:00*%
%TF.ProjectId,tstick,74737469-636b-42e6-9b69-6361645f7063,rev?*%
%TF.SameCoordinates,Original*%
%TF.FileFunction,Soldermask,Bot*%
%TF.FilePolarity,Negative*%
%FSLAX46Y46*%
G04 Gerber Fmt 4.6, Leading zero omitted, Abs format (unit mm)*
G04 Created by KiCad (PCBNEW 8.0.6) date 2025-11-06 12:50:02*
%MOMM*%
%LPD*%
G01*
G04 APERTURE LIST*
G04 Aperture macros list*
%AMRoundRect*
0 Rectangle with rounded corners*
0 $1 Rounding radius*
0 $2 $3 $4 $5 $6 $7 $8 $9 X,Y pos of 4 corners*
0 Add a 4 corners polygon primitive as box body*
4,1,4,$2,$3,$4,$5,$6,$7,$8,$9,$2,$3,0*
0 Add four circle primitives for the rounded corners*
1,1,$1+$1,$2,$3*
1,1,$1+$1,$4,$5*
1,1,$1+$1,$6,$7*
1,1,$1+$1,$8,$9*
0 Add four rect primitives between the rounded corners*
20,1,$1+$1,$2,$3,$4,$5,0*
20,1,$1+$1,$4,$5,$6,$7,0*
20,1,$1+$1,$6,$7,$8,$9,0*
20,1,$1+$1,$8,$9,$2,$3,0*%
G04 Aperture macros list end*
%ADD10C,2.200000*%
%ADD11RoundRect,0.102000X-0.500000X-1.750000X0.500000X-1.750000X0.500000X1.750000X-0.500000X1.750000X0*%
%ADD12O,2.750000X1.800000*%
%ADD13C,1.500000*%
%ADD14O,1.300000X1.000000*%
%ADD15C,2.000000*%
%ADD16R,3.200000X2.500000*%
%ADD17C,1.700000*%
%ADD18C,3.000000*%
%ADD19C,4.800000*%
%ADD20C,1.000000*%
%ADD21R,3.000000X3.500000*%
%ADD22R,3.300000X3.000000*%
%ADD23RoundRect,0.225000X0.250000X-0.225000X0.250000X0.225000X-0.250000X0.225000X-0.250000X-0.225000X0*%
%ADD24RoundRect,0.250000X0.300000X-0.300000X0.300000X0.300000X-0.300000X0.300000X-0.300000X-0.300000X0*%
%ADD25C,1.100000*%
%ADD26R,1.397000X1.397000*%
%ADD27R,0.950000X1.300000*%
%ADD28C,1.397000*%
%ADD29R,1.300000X0.950000*%
%ADD30RoundRect,0.225000X-0.225000X-0.250000X0.225000X-0.250000X0.225000X0.250000X-0.225000X0.250000X0*%
G04 APERTURE END LIST*
D10*
%TO.C,Ref\u002A\u002A*%
X109550300Y-162458120D03*
%TD*%
%TO.C,Ref\u002A\u002A*%
X89675901Y-162432827D03*
%TD*%
%TO.C,Ref\u002A\u002A*%
X88645844Y-37775358D03*
%TD*%
%TO.C,Ref\u002A\u002A*%
X110400604Y-37675327D03*
%TD*%
D11*
%TO.C,BT1*%
X99000000Y-51000000D03*
X101000000Y-51000000D03*
%TD*%
D12*
%TO.C,U1*%
X91589400Y-39434700D03*
X91589400Y-41974700D03*
X91589400Y-44514700D03*
X91589400Y-47054700D03*
X91589400Y-49594700D03*
X91589400Y-52134700D03*
X91589400Y-54674700D03*
X107829400Y-54674700D03*
X107829400Y-52134700D03*
X107829400Y-49594700D03*
X107829400Y-47054700D03*
X107829400Y-44514700D03*
X107829400Y-41974700D03*
X107829400Y-39434700D03*
D13*
X103544800Y-56366700D03*
X105424400Y-56366700D03*
X95264400Y-46737700D03*
X95264400Y-44832700D03*
%TD*%
D14*
%TO.C,SW21*%
X97249900Y-161297200D03*
X99749900Y-161297200D03*
X102249900Y-161297200D03*
%TD*%
D15*
%TO.C,SW4*%
X92506600Y-149793200D03*
X92506600Y-152293200D03*
X92506600Y-154793200D03*
D16*
X100006600Y-146693200D03*
X100006600Y-157893200D03*
D15*
X107006600Y-149793200D03*
X107006600Y-154793200D03*
%TD*%
D17*
%TO.C,SW3*%
X94464200Y-132747300D03*
D15*
X94884200Y-132747300D03*
D18*
X94964200Y-136447300D03*
X96154200Y-130207300D03*
D19*
X99964200Y-132747300D03*
D18*
X99964200Y-138647300D03*
X102504200Y-127667300D03*
D20*
X104964200Y-127197300D03*
D15*
X105044200Y-132747300D03*
D17*
X105464200Y-132747300D03*
D21*
X91614200Y-136447300D03*
D22*
X92514200Y-130167300D03*
D21*
X103514200Y-138647300D03*
D22*
X106114200Y-127627300D03*
%TD*%
D17*
%TO.C,SW2*%
X94500000Y-113550000D03*
D15*
X94920000Y-113550000D03*
D18*
X95000000Y-117250000D03*
X96190000Y-111010000D03*
D19*
X100000000Y-113550000D03*
D18*
X100000000Y-119450000D03*
X102540000Y-108470000D03*
D20*
X105000000Y-108000000D03*
D15*
X105080000Y-113550000D03*
D17*
X105500000Y-113550000D03*
D21*
X91650000Y-117250000D03*
D22*
X92550000Y-110970000D03*
D21*
X103550000Y-119450000D03*
D22*
X106150000Y-108430000D03*
%TD*%
D17*
%TO.C,SW1*%
X94420000Y-69000000D03*
D15*
X94840000Y-69000000D03*
D18*
X94920000Y-72700000D03*
X96110000Y-66460000D03*
D19*
X99920000Y-69000000D03*
D18*
X99920000Y-74900000D03*
X102460000Y-63920000D03*
D20*
X104920000Y-63450000D03*
D15*
X105000000Y-69000000D03*
D17*
X105420000Y-69000000D03*
D21*
X91570000Y-72700000D03*
D22*
X92470000Y-66420000D03*
D21*
X103470000Y-74900000D03*
D22*
X106070000Y-63880000D03*
%TD*%
D23*
%TO.C,R1*%
X90547600Y-86673800D03*
X90547600Y-85123800D03*
%TD*%
D24*
%TO.C,pmw3610*%
X94300000Y-95790000D03*
D25*
X94300000Y-94010000D03*
X94300000Y-92230000D03*
X94300000Y-90450000D03*
X94300000Y-88670000D03*
X94300000Y-86890000D03*
X94300000Y-85110000D03*
X94300000Y-83330000D03*
X105000000Y-82440000D03*
X105000000Y-84220000D03*
X105000000Y-86000000D03*
X105000000Y-87780000D03*
X105000000Y-89560000D03*
X105000000Y-91340000D03*
X105000000Y-93120000D03*
X105000000Y-94900000D03*
%TD*%
D26*
%TO.C,D3*%
X108000000Y-133190000D03*
D27*
X108000000Y-135225000D03*
X108000000Y-138775000D03*
D28*
X108000000Y-140810000D03*
%TD*%
D26*
%TO.C,D2*%
X96965000Y-105000000D03*
D29*
X99000000Y-105000000D03*
X102550000Y-105000000D03*
D28*
X104585000Y-105000000D03*
%TD*%
D26*
%TO.C,D1*%
X108000000Y-69190000D03*
D27*
X108000000Y-71225000D03*
X108000000Y-74775000D03*
D28*
X108000000Y-76810000D03*
%TD*%
D30*
%TO.C,C9*%
X106259300Y-102399600D03*
X107809300Y-102399600D03*
%TD*%
%TO.C,C8*%
X108225000Y-95000000D03*
X109775000Y-95000000D03*
%TD*%
D23*
%TO.C,C7*%
X110043900Y-89804100D03*
X110043900Y-88254100D03*
%TD*%
%TO.C,C6*%
X108000000Y-89775000D03*
X108000000Y-88225000D03*
%TD*%
%TO.C,C5*%
X93000000Y-80775000D03*
X93000000Y-79225000D03*
%TD*%
%TO.C,C4*%
X90466900Y-80761000D03*
X90466900Y-79211000D03*
%TD*%
%TO.C,C3*%
X109000000Y-84775000D03*
X109000000Y-83225000D03*
%TD*%
D30*
%TO.C,C2*%
X106225000Y-100000000D03*
X107775000Y-100000000D03*
%TD*%
%TO.C,C1*%
X93000000Y-101000000D03*
X94550000Y-101000000D03*
%TD*%
M02*
