M48
; DRILL file {KiCad 8.0.6} date 2025-11-06T13:39:26+0900
; FORMAT={-:-/ absolute / inch / decimal}
; #@! TF.CreationDate,2025-11-06T13:39:26+09:00
; #@! TF.GenerationSoftware,Kicad,Pcbnew,8.0.6
; #@! TF.FileFunction,NonPlated,1,2,NPTH
FMAT,2
INCH
; #@! TA.AperFunction,NonPlated,NPTH,ComponentDrill
T1C0.0394
; #@! TA.AperFunction,NonPlated,NPTH,ComponentDrill
T2C0.0669
; #@! TA.AperFunction,NonPlated,NPTH,ComponentDrill
T3C0.0787
; #@! TA.AperFunction,NonPlated,NPTH,ComponentDrill
T4C0.0866
; #@! TA.AperFunction,NonPlated,NPTH,ComponentDrill
T5C0.1181
; #@! TA.AperFunction,NonPlated,NPTH,ComponentDrill
T6C0.1890
%
G90
G05
T1
X4.1307Y-2.498
X4.1324Y-5.3327
X4.1333Y-4.4993
T2
X3.7173Y-2.7165
X3.7191Y-5.5512
X3.7199Y-4.7178
X4.1504Y-2.7165
X4.1521Y-5.5512
X4.153Y-4.7178
T3
X3.7339Y-2.7165
X3.7356Y-5.5512
X3.7364Y-4.7178
X4.1339Y-2.7165
X4.1356Y-5.5512
X4.1364Y-4.7178
T4
X3.49Y-1.4872
X3.5341Y-6.6203
X4.3046Y-6.6296
X4.3465Y-1.4833
T5
X3.737Y-2.8622
X3.7387Y-5.6969
X3.7396Y-4.8634
X3.7839Y-2.6165
X3.7856Y-5.4512
X3.7864Y-4.6178
X3.9339Y-2.9488
X3.9356Y-5.7835
X3.9364Y-4.9501
X4.0339Y-2.5165
X4.0356Y-5.3512
X4.0364Y-4.5178
T6
X3.9339Y-2.7165
X3.9356Y-5.5512
X3.9364Y-4.7178
M30
