%TF.GenerationSoftware,KiCad,Pcbnew,8.0.6*%
%TF.CreationDate,2025-11-06T12:50:02+09:00*%
%TF.ProjectId,tstick,74737469-636b-42e6-9b69-6361645f7063,rev?*%
%TF.SameCoordinates,Original*%
%TF.FileFunction,Legend,Top*%
%TF.FilePolarity,Positive*%
%FSLAX46Y46*%
G04 Gerber Fmt 4.6, Leading zero omitted, Abs format (unit mm)*
G04 Created by KiCad (PCBNEW 8.0.6) date 2025-11-06 12:50:02*
%MOMM*%
%LPD*%
G01*
G04 APERTURE LIST*
G04 Aperture macros list*
%AMRoundRect*
0 Rectangle with rounded corners*
0 $1 Rounding radius*
0 $2 $3 $4 $5 $6 $7 $8 $9 X,Y pos of 4 corners*
0 Add a 4 corners polygon primitive as box body*
4,1,4,$2,$3,$4,$5,$6,$7,$8,$9,$2,$3,0*
0 Add four circle primitives for the rounded corners*
1,1,$1+$1,$2,$3*
1,1,$1+$1,$4,$5*
1,1,$1+$1,$6,$7*
1,1,$1+$1,$8,$9*
0 Add four rect primitives between the rounded corners*
20,1,$1+$1,$2,$3,$4,$5,0*
20,1,$1+$1,$4,$5,$6,$7,0*
20,1,$1+$1,$6,$7,$8,$9,0*
20,1,$1+$1,$8,$9,$2,$3,0*%
G04 Aperture macros list end*
%ADD10C,0.150000*%
%ADD11C,0.127000*%
%ADD12C,0.120000*%
%ADD13R,1.397000X1.397000*%
%ADD14C,1.397000*%
%ADD15C,2.200000*%
%ADD16RoundRect,0.150000X-0.587500X-0.150000X0.587500X-0.150000X0.587500X0.150000X-0.587500X0.150000X0*%
%ADD17O,2.750000X1.800000*%
%ADD18C,1.500000*%
%ADD19O,1.300000X1.000000*%
%ADD20C,2.000000*%
%ADD21R,3.200000X2.500000*%
%ADD22C,1.700000*%
%ADD23C,3.000000*%
%ADD24C,4.800000*%
%ADD25C,1.000000*%
%ADD26RoundRect,0.250000X0.300000X-0.300000X0.300000X0.300000X-0.300000X0.300000X-0.300000X-0.300000X0*%
%ADD27C,1.100000*%
G04 APERTURE END LIST*
D10*
X99175595Y-98104819D02*
X99175595Y-98914342D01*
X99175595Y-98914342D02*
X99223214Y-99009580D01*
X99223214Y-99009580D02*
X99270833Y-99057200D01*
X99270833Y-99057200D02*
X99366071Y-99104819D01*
X99366071Y-99104819D02*
X99556547Y-99104819D01*
X99556547Y-99104819D02*
X99651785Y-99057200D01*
X99651785Y-99057200D02*
X99699404Y-99009580D01*
X99699404Y-99009580D02*
X99747023Y-98914342D01*
X99747023Y-98914342D02*
X99747023Y-98104819D01*
X100175595Y-98200057D02*
X100223214Y-98152438D01*
X100223214Y-98152438D02*
X100318452Y-98104819D01*
X100318452Y-98104819D02*
X100556547Y-98104819D01*
X100556547Y-98104819D02*
X100651785Y-98152438D01*
X100651785Y-98152438D02*
X100699404Y-98200057D01*
X100699404Y-98200057D02*
X100747023Y-98295295D01*
X100747023Y-98295295D02*
X100747023Y-98390533D01*
X100747023Y-98390533D02*
X100699404Y-98533390D01*
X100699404Y-98533390D02*
X100127976Y-99104819D01*
X100127976Y-99104819D02*
X100747023Y-99104819D01*
X89572419Y-86065466D02*
X89096228Y-86398799D01*
X89572419Y-86636894D02*
X88572419Y-86636894D01*
X88572419Y-86636894D02*
X88572419Y-86255942D01*
X88572419Y-86255942D02*
X88620038Y-86160704D01*
X88620038Y-86160704D02*
X88667657Y-86113085D01*
X88667657Y-86113085D02*
X88762895Y-86065466D01*
X88762895Y-86065466D02*
X88905752Y-86065466D01*
X88905752Y-86065466D02*
X89000990Y-86113085D01*
X89000990Y-86113085D02*
X89048609Y-86160704D01*
X89048609Y-86160704D02*
X89096228Y-86255942D01*
X89096228Y-86255942D02*
X89096228Y-86636894D01*
X89572419Y-85113085D02*
X89572419Y-85684513D01*
X89572419Y-85398799D02*
X88572419Y-85398799D01*
X88572419Y-85398799D02*
X88715276Y-85494037D01*
X88715276Y-85494037D02*
X88810514Y-85589275D01*
X88810514Y-85589275D02*
X88858133Y-85684513D01*
X106867633Y-101329180D02*
X106820014Y-101376800D01*
X106820014Y-101376800D02*
X106677157Y-101424419D01*
X106677157Y-101424419D02*
X106581919Y-101424419D01*
X106581919Y-101424419D02*
X106439062Y-101376800D01*
X106439062Y-101376800D02*
X106343824Y-101281561D01*
X106343824Y-101281561D02*
X106296205Y-101186323D01*
X106296205Y-101186323D02*
X106248586Y-100995847D01*
X106248586Y-100995847D02*
X106248586Y-100852990D01*
X106248586Y-100852990D02*
X106296205Y-100662514D01*
X106296205Y-100662514D02*
X106343824Y-100567276D01*
X106343824Y-100567276D02*
X106439062Y-100472038D01*
X106439062Y-100472038D02*
X106581919Y-100424419D01*
X106581919Y-100424419D02*
X106677157Y-100424419D01*
X106677157Y-100424419D02*
X106820014Y-100472038D01*
X106820014Y-100472038D02*
X106867633Y-100519657D01*
X107343824Y-101424419D02*
X107534300Y-101424419D01*
X107534300Y-101424419D02*
X107629538Y-101376800D01*
X107629538Y-101376800D02*
X107677157Y-101329180D01*
X107677157Y-101329180D02*
X107772395Y-101186323D01*
X107772395Y-101186323D02*
X107820014Y-100995847D01*
X107820014Y-100995847D02*
X107820014Y-100614895D01*
X107820014Y-100614895D02*
X107772395Y-100519657D01*
X107772395Y-100519657D02*
X107724776Y-100472038D01*
X107724776Y-100472038D02*
X107629538Y-100424419D01*
X107629538Y-100424419D02*
X107439062Y-100424419D01*
X107439062Y-100424419D02*
X107343824Y-100472038D01*
X107343824Y-100472038D02*
X107296205Y-100519657D01*
X107296205Y-100519657D02*
X107248586Y-100614895D01*
X107248586Y-100614895D02*
X107248586Y-100852990D01*
X107248586Y-100852990D02*
X107296205Y-100948228D01*
X107296205Y-100948228D02*
X107343824Y-100995847D01*
X107343824Y-100995847D02*
X107439062Y-101043466D01*
X107439062Y-101043466D02*
X107629538Y-101043466D01*
X107629538Y-101043466D02*
X107724776Y-100995847D01*
X107724776Y-100995847D02*
X107772395Y-100948228D01*
X107772395Y-100948228D02*
X107820014Y-100852990D01*
X108833333Y-93929580D02*
X108785714Y-93977200D01*
X108785714Y-93977200D02*
X108642857Y-94024819D01*
X108642857Y-94024819D02*
X108547619Y-94024819D01*
X108547619Y-94024819D02*
X108404762Y-93977200D01*
X108404762Y-93977200D02*
X108309524Y-93881961D01*
X108309524Y-93881961D02*
X108261905Y-93786723D01*
X108261905Y-93786723D02*
X108214286Y-93596247D01*
X108214286Y-93596247D02*
X108214286Y-93453390D01*
X108214286Y-93453390D02*
X108261905Y-93262914D01*
X108261905Y-93262914D02*
X108309524Y-93167676D01*
X108309524Y-93167676D02*
X108404762Y-93072438D01*
X108404762Y-93072438D02*
X108547619Y-93024819D01*
X108547619Y-93024819D02*
X108642857Y-93024819D01*
X108642857Y-93024819D02*
X108785714Y-93072438D01*
X108785714Y-93072438D02*
X108833333Y-93120057D01*
X109404762Y-93453390D02*
X109309524Y-93405771D01*
X109309524Y-93405771D02*
X109261905Y-93358152D01*
X109261905Y-93358152D02*
X109214286Y-93262914D01*
X109214286Y-93262914D02*
X109214286Y-93215295D01*
X109214286Y-93215295D02*
X109261905Y-93120057D01*
X109261905Y-93120057D02*
X109309524Y-93072438D01*
X109309524Y-93072438D02*
X109404762Y-93024819D01*
X109404762Y-93024819D02*
X109595238Y-93024819D01*
X109595238Y-93024819D02*
X109690476Y-93072438D01*
X109690476Y-93072438D02*
X109738095Y-93120057D01*
X109738095Y-93120057D02*
X109785714Y-93215295D01*
X109785714Y-93215295D02*
X109785714Y-93262914D01*
X109785714Y-93262914D02*
X109738095Y-93358152D01*
X109738095Y-93358152D02*
X109690476Y-93405771D01*
X109690476Y-93405771D02*
X109595238Y-93453390D01*
X109595238Y-93453390D02*
X109404762Y-93453390D01*
X109404762Y-93453390D02*
X109309524Y-93501009D01*
X109309524Y-93501009D02*
X109261905Y-93548628D01*
X109261905Y-93548628D02*
X109214286Y-93643866D01*
X109214286Y-93643866D02*
X109214286Y-93834342D01*
X109214286Y-93834342D02*
X109261905Y-93929580D01*
X109261905Y-93929580D02*
X109309524Y-93977200D01*
X109309524Y-93977200D02*
X109404762Y-94024819D01*
X109404762Y-94024819D02*
X109595238Y-94024819D01*
X109595238Y-94024819D02*
X109690476Y-93977200D01*
X109690476Y-93977200D02*
X109738095Y-93929580D01*
X109738095Y-93929580D02*
X109785714Y-93834342D01*
X109785714Y-93834342D02*
X109785714Y-93643866D01*
X109785714Y-93643866D02*
X109738095Y-93548628D01*
X109738095Y-93548628D02*
X109690476Y-93501009D01*
X109690476Y-93501009D02*
X109595238Y-93453390D01*
X108973480Y-89195766D02*
X109021100Y-89243385D01*
X109021100Y-89243385D02*
X109068719Y-89386242D01*
X109068719Y-89386242D02*
X109068719Y-89481480D01*
X109068719Y-89481480D02*
X109021100Y-89624337D01*
X109021100Y-89624337D02*
X108925861Y-89719575D01*
X108925861Y-89719575D02*
X108830623Y-89767194D01*
X108830623Y-89767194D02*
X108640147Y-89814813D01*
X108640147Y-89814813D02*
X108497290Y-89814813D01*
X108497290Y-89814813D02*
X108306814Y-89767194D01*
X108306814Y-89767194D02*
X108211576Y-89719575D01*
X108211576Y-89719575D02*
X108116338Y-89624337D01*
X108116338Y-89624337D02*
X108068719Y-89481480D01*
X108068719Y-89481480D02*
X108068719Y-89386242D01*
X108068719Y-89386242D02*
X108116338Y-89243385D01*
X108116338Y-89243385D02*
X108163957Y-89195766D01*
X108068719Y-88862432D02*
X108068719Y-88195766D01*
X108068719Y-88195766D02*
X109068719Y-88624337D01*
X106929580Y-89166666D02*
X106977200Y-89214285D01*
X106977200Y-89214285D02*
X107024819Y-89357142D01*
X107024819Y-89357142D02*
X107024819Y-89452380D01*
X107024819Y-89452380D02*
X106977200Y-89595237D01*
X106977200Y-89595237D02*
X106881961Y-89690475D01*
X106881961Y-89690475D02*
X106786723Y-89738094D01*
X106786723Y-89738094D02*
X106596247Y-89785713D01*
X106596247Y-89785713D02*
X106453390Y-89785713D01*
X106453390Y-89785713D02*
X106262914Y-89738094D01*
X106262914Y-89738094D02*
X106167676Y-89690475D01*
X106167676Y-89690475D02*
X106072438Y-89595237D01*
X106072438Y-89595237D02*
X106024819Y-89452380D01*
X106024819Y-89452380D02*
X106024819Y-89357142D01*
X106024819Y-89357142D02*
X106072438Y-89214285D01*
X106072438Y-89214285D02*
X106120057Y-89166666D01*
X106024819Y-88309523D02*
X106024819Y-88499999D01*
X106024819Y-88499999D02*
X106072438Y-88595237D01*
X106072438Y-88595237D02*
X106120057Y-88642856D01*
X106120057Y-88642856D02*
X106262914Y-88738094D01*
X106262914Y-88738094D02*
X106453390Y-88785713D01*
X106453390Y-88785713D02*
X106834342Y-88785713D01*
X106834342Y-88785713D02*
X106929580Y-88738094D01*
X106929580Y-88738094D02*
X106977200Y-88690475D01*
X106977200Y-88690475D02*
X107024819Y-88595237D01*
X107024819Y-88595237D02*
X107024819Y-88404761D01*
X107024819Y-88404761D02*
X106977200Y-88309523D01*
X106977200Y-88309523D02*
X106929580Y-88261904D01*
X106929580Y-88261904D02*
X106834342Y-88214285D01*
X106834342Y-88214285D02*
X106596247Y-88214285D01*
X106596247Y-88214285D02*
X106501009Y-88261904D01*
X106501009Y-88261904D02*
X106453390Y-88309523D01*
X106453390Y-88309523D02*
X106405771Y-88404761D01*
X106405771Y-88404761D02*
X106405771Y-88595237D01*
X106405771Y-88595237D02*
X106453390Y-88690475D01*
X106453390Y-88690475D02*
X106501009Y-88738094D01*
X106501009Y-88738094D02*
X106596247Y-88785713D01*
X91929580Y-80166666D02*
X91977200Y-80214285D01*
X91977200Y-80214285D02*
X92024819Y-80357142D01*
X92024819Y-80357142D02*
X92024819Y-80452380D01*
X92024819Y-80452380D02*
X91977200Y-80595237D01*
X91977200Y-80595237D02*
X91881961Y-80690475D01*
X91881961Y-80690475D02*
X91786723Y-80738094D01*
X91786723Y-80738094D02*
X91596247Y-80785713D01*
X91596247Y-80785713D02*
X91453390Y-80785713D01*
X91453390Y-80785713D02*
X91262914Y-80738094D01*
X91262914Y-80738094D02*
X91167676Y-80690475D01*
X91167676Y-80690475D02*
X91072438Y-80595237D01*
X91072438Y-80595237D02*
X91024819Y-80452380D01*
X91024819Y-80452380D02*
X91024819Y-80357142D01*
X91024819Y-80357142D02*
X91072438Y-80214285D01*
X91072438Y-80214285D02*
X91120057Y-80166666D01*
X91024819Y-79261904D02*
X91024819Y-79738094D01*
X91024819Y-79738094D02*
X91501009Y-79785713D01*
X91501009Y-79785713D02*
X91453390Y-79738094D01*
X91453390Y-79738094D02*
X91405771Y-79642856D01*
X91405771Y-79642856D02*
X91405771Y-79404761D01*
X91405771Y-79404761D02*
X91453390Y-79309523D01*
X91453390Y-79309523D02*
X91501009Y-79261904D01*
X91501009Y-79261904D02*
X91596247Y-79214285D01*
X91596247Y-79214285D02*
X91834342Y-79214285D01*
X91834342Y-79214285D02*
X91929580Y-79261904D01*
X91929580Y-79261904D02*
X91977200Y-79309523D01*
X91977200Y-79309523D02*
X92024819Y-79404761D01*
X92024819Y-79404761D02*
X92024819Y-79642856D01*
X92024819Y-79642856D02*
X91977200Y-79738094D01*
X91977200Y-79738094D02*
X91929580Y-79785713D01*
X89396480Y-80152666D02*
X89444100Y-80200285D01*
X89444100Y-80200285D02*
X89491719Y-80343142D01*
X89491719Y-80343142D02*
X89491719Y-80438380D01*
X89491719Y-80438380D02*
X89444100Y-80581237D01*
X89444100Y-80581237D02*
X89348861Y-80676475D01*
X89348861Y-80676475D02*
X89253623Y-80724094D01*
X89253623Y-80724094D02*
X89063147Y-80771713D01*
X89063147Y-80771713D02*
X88920290Y-80771713D01*
X88920290Y-80771713D02*
X88729814Y-80724094D01*
X88729814Y-80724094D02*
X88634576Y-80676475D01*
X88634576Y-80676475D02*
X88539338Y-80581237D01*
X88539338Y-80581237D02*
X88491719Y-80438380D01*
X88491719Y-80438380D02*
X88491719Y-80343142D01*
X88491719Y-80343142D02*
X88539338Y-80200285D01*
X88539338Y-80200285D02*
X88586957Y-80152666D01*
X88825052Y-79295523D02*
X89491719Y-79295523D01*
X88444100Y-79533618D02*
X89158385Y-79771713D01*
X89158385Y-79771713D02*
X89158385Y-79152666D01*
X107929580Y-84166666D02*
X107977200Y-84214285D01*
X107977200Y-84214285D02*
X108024819Y-84357142D01*
X108024819Y-84357142D02*
X108024819Y-84452380D01*
X108024819Y-84452380D02*
X107977200Y-84595237D01*
X107977200Y-84595237D02*
X107881961Y-84690475D01*
X107881961Y-84690475D02*
X107786723Y-84738094D01*
X107786723Y-84738094D02*
X107596247Y-84785713D01*
X107596247Y-84785713D02*
X107453390Y-84785713D01*
X107453390Y-84785713D02*
X107262914Y-84738094D01*
X107262914Y-84738094D02*
X107167676Y-84690475D01*
X107167676Y-84690475D02*
X107072438Y-84595237D01*
X107072438Y-84595237D02*
X107024819Y-84452380D01*
X107024819Y-84452380D02*
X107024819Y-84357142D01*
X107024819Y-84357142D02*
X107072438Y-84214285D01*
X107072438Y-84214285D02*
X107120057Y-84166666D01*
X107024819Y-83833332D02*
X107024819Y-83214285D01*
X107024819Y-83214285D02*
X107405771Y-83547618D01*
X107405771Y-83547618D02*
X107405771Y-83404761D01*
X107405771Y-83404761D02*
X107453390Y-83309523D01*
X107453390Y-83309523D02*
X107501009Y-83261904D01*
X107501009Y-83261904D02*
X107596247Y-83214285D01*
X107596247Y-83214285D02*
X107834342Y-83214285D01*
X107834342Y-83214285D02*
X107929580Y-83261904D01*
X107929580Y-83261904D02*
X107977200Y-83309523D01*
X107977200Y-83309523D02*
X108024819Y-83404761D01*
X108024819Y-83404761D02*
X108024819Y-83690475D01*
X108024819Y-83690475D02*
X107977200Y-83785713D01*
X107977200Y-83785713D02*
X107929580Y-83833332D01*
X106833333Y-98929580D02*
X106785714Y-98977200D01*
X106785714Y-98977200D02*
X106642857Y-99024819D01*
X106642857Y-99024819D02*
X106547619Y-99024819D01*
X106547619Y-99024819D02*
X106404762Y-98977200D01*
X106404762Y-98977200D02*
X106309524Y-98881961D01*
X106309524Y-98881961D02*
X106261905Y-98786723D01*
X106261905Y-98786723D02*
X106214286Y-98596247D01*
X106214286Y-98596247D02*
X106214286Y-98453390D01*
X106214286Y-98453390D02*
X106261905Y-98262914D01*
X106261905Y-98262914D02*
X106309524Y-98167676D01*
X106309524Y-98167676D02*
X106404762Y-98072438D01*
X106404762Y-98072438D02*
X106547619Y-98024819D01*
X106547619Y-98024819D02*
X106642857Y-98024819D01*
X106642857Y-98024819D02*
X106785714Y-98072438D01*
X106785714Y-98072438D02*
X106833333Y-98120057D01*
X107214286Y-98120057D02*
X107261905Y-98072438D01*
X107261905Y-98072438D02*
X107357143Y-98024819D01*
X107357143Y-98024819D02*
X107595238Y-98024819D01*
X107595238Y-98024819D02*
X107690476Y-98072438D01*
X107690476Y-98072438D02*
X107738095Y-98120057D01*
X107738095Y-98120057D02*
X107785714Y-98215295D01*
X107785714Y-98215295D02*
X107785714Y-98310533D01*
X107785714Y-98310533D02*
X107738095Y-98453390D01*
X107738095Y-98453390D02*
X107166667Y-99024819D01*
X107166667Y-99024819D02*
X107785714Y-99024819D01*
X93608333Y-99929580D02*
X93560714Y-99977200D01*
X93560714Y-99977200D02*
X93417857Y-100024819D01*
X93417857Y-100024819D02*
X93322619Y-100024819D01*
X93322619Y-100024819D02*
X93179762Y-99977200D01*
X93179762Y-99977200D02*
X93084524Y-99881961D01*
X93084524Y-99881961D02*
X93036905Y-99786723D01*
X93036905Y-99786723D02*
X92989286Y-99596247D01*
X92989286Y-99596247D02*
X92989286Y-99453390D01*
X92989286Y-99453390D02*
X93036905Y-99262914D01*
X93036905Y-99262914D02*
X93084524Y-99167676D01*
X93084524Y-99167676D02*
X93179762Y-99072438D01*
X93179762Y-99072438D02*
X93322619Y-99024819D01*
X93322619Y-99024819D02*
X93417857Y-99024819D01*
X93417857Y-99024819D02*
X93560714Y-99072438D01*
X93560714Y-99072438D02*
X93608333Y-99120057D01*
X94560714Y-100024819D02*
X93989286Y-100024819D01*
X94275000Y-100024819D02*
X94275000Y-99024819D01*
X94275000Y-99024819D02*
X94179762Y-99167676D01*
X94179762Y-99167676D02*
X94084524Y-99262914D01*
X94084524Y-99262914D02*
X93989286Y-99310533D01*
%TO.C,BT1*%
D11*
X101963500Y-52600000D02*
G75*
G02*
X101836500Y-52600000I-63500J0D01*
G01*
X101836500Y-52600000D02*
G75*
G02*
X101963500Y-52600000I63500J0D01*
G01*
D12*
%TO.C,U2*%
X99937500Y-99490000D02*
X99287500Y-99490000D01*
X99937500Y-99490000D02*
X100587500Y-99490000D01*
X99937500Y-102610000D02*
X99287500Y-102610000D01*
X99937500Y-102610000D02*
X100587500Y-102610000D01*
X98775000Y-99540000D02*
X98535000Y-99210000D01*
X99015000Y-99210000D01*
X98775000Y-99540000D01*
G36*
X98775000Y-99540000D02*
G01*
X98535000Y-99210000D01*
X99015000Y-99210000D01*
X98775000Y-99540000D01*
G37*
D10*
%TO.C,SW21*%
X95249900Y-160347200D02*
X104249900Y-160347200D01*
X104249900Y-160347200D02*
X104249900Y-163847200D01*
X104249900Y-163847200D02*
X95249900Y-163847200D01*
X95249900Y-163847200D02*
X95249900Y-160347200D01*
%TO.C,SW4*%
X94450350Y-157849450D02*
X95244100Y-157849450D01*
X94450350Y-157055700D02*
X94450350Y-157849450D01*
X94450350Y-146736950D02*
X94450350Y-147530700D01*
X95244100Y-146736950D02*
X94450350Y-146736950D01*
X105562850Y-157849450D02*
X105562850Y-157055700D01*
X104769100Y-157849450D02*
X105562850Y-157849450D01*
X105562850Y-146736950D02*
X105562850Y-147530700D01*
X104769100Y-146736950D02*
X105562850Y-146736950D01*
D12*
%TO.C,R1*%
X90037600Y-86039380D02*
X90037600Y-85758220D01*
X91057600Y-86039380D02*
X91057600Y-85758220D01*
%TO.C,C9*%
X106893720Y-101889600D02*
X107174880Y-101889600D01*
X106893720Y-102909600D02*
X107174880Y-102909600D01*
%TO.C,C8*%
X108859420Y-94490000D02*
X109140580Y-94490000D01*
X108859420Y-95510000D02*
X109140580Y-95510000D01*
%TO.C,C7*%
X109533900Y-89169680D02*
X109533900Y-88888520D01*
X110553900Y-89169680D02*
X110553900Y-88888520D01*
%TO.C,C6*%
X107490000Y-89140580D02*
X107490000Y-88859420D01*
X108510000Y-89140580D02*
X108510000Y-88859420D01*
%TO.C,C5*%
X92490000Y-80140580D02*
X92490000Y-79859420D01*
X93510000Y-80140580D02*
X93510000Y-79859420D01*
%TO.C,C4*%
X89956900Y-80126580D02*
X89956900Y-79845420D01*
X90976900Y-80126580D02*
X90976900Y-79845420D01*
%TO.C,C3*%
X108490000Y-84140580D02*
X108490000Y-83859420D01*
X109510000Y-84140580D02*
X109510000Y-83859420D01*
%TO.C,C2*%
X106859420Y-99490000D02*
X107140580Y-99490000D01*
X106859420Y-100510000D02*
X107140580Y-100510000D01*
%TO.C,C1*%
X93634420Y-100490000D02*
X93915580Y-100490000D01*
X93634420Y-101510000D02*
X93915580Y-101510000D01*
%TD*%
D13*
%TO.C,D3*%
X108000000Y-133190000D03*
D14*
X108000000Y-140810000D03*
%TD*%
D13*
%TO.C,D2*%
X96965000Y-105000000D03*
D14*
X104585000Y-105000000D03*
%TD*%
D13*
%TO.C,D1*%
X108000000Y-69190000D03*
D14*
X108000000Y-76810000D03*
%TD*%
%LPC*%
D15*
%TO.C,Ref\u002A\u002A*%
X109550300Y-162458120D03*
%TD*%
%TO.C,Ref\u002A\u002A*%
X89675901Y-162432827D03*
%TD*%
%TO.C,Ref\u002A\u002A*%
X88645844Y-37775358D03*
%TD*%
%TO.C,Ref\u002A\u002A*%
X110400604Y-37675327D03*
%TD*%
D16*
%TO.C,U2*%
X99000000Y-100100000D03*
X99000000Y-102000000D03*
X100875000Y-101050000D03*
%TD*%
D17*
%TO.C,U1*%
X91589400Y-39434700D03*
X91589400Y-41974700D03*
X91589400Y-44514700D03*
X91589400Y-47054700D03*
X91589400Y-49594700D03*
X91589400Y-52134700D03*
X91589400Y-54674700D03*
X107829400Y-54674700D03*
X107829400Y-52134700D03*
X107829400Y-49594700D03*
X107829400Y-47054700D03*
X107829400Y-44514700D03*
X107829400Y-41974700D03*
X107829400Y-39434700D03*
D18*
X103544800Y-56366700D03*
X105424400Y-56366700D03*
X95264400Y-46737700D03*
X95264400Y-44832700D03*
%TD*%
D19*
%TO.C,SW21*%
X97249900Y-161297200D03*
X99749900Y-161297200D03*
X102249900Y-161297200D03*
%TD*%
D20*
%TO.C,SW4*%
X92506600Y-149793200D03*
X92506600Y-152293200D03*
X92506600Y-154793200D03*
D21*
X100006600Y-146693200D03*
X100006600Y-157893200D03*
D20*
X107006600Y-149793200D03*
X107006600Y-154793200D03*
%TD*%
D22*
%TO.C,SW3*%
X94464200Y-132747300D03*
D20*
X94884200Y-132747300D03*
D23*
X94964200Y-136447300D03*
X96154200Y-130207300D03*
D24*
X99964200Y-132747300D03*
D23*
X99964200Y-138647300D03*
X102504200Y-127667300D03*
D25*
X104964200Y-127197300D03*
D20*
X105044200Y-132747300D03*
D22*
X105464200Y-132747300D03*
%TD*%
%TO.C,SW2*%
X94500000Y-113550000D03*
D20*
X94920000Y-113550000D03*
D23*
X95000000Y-117250000D03*
X96190000Y-111010000D03*
D24*
X100000000Y-113550000D03*
D23*
X100000000Y-119450000D03*
X102540000Y-108470000D03*
D25*
X105000000Y-108000000D03*
D20*
X105080000Y-113550000D03*
D22*
X105500000Y-113550000D03*
%TD*%
%TO.C,SW1*%
X94420000Y-69000000D03*
D20*
X94840000Y-69000000D03*
D23*
X94920000Y-72700000D03*
X96110000Y-66460000D03*
D24*
X99920000Y-69000000D03*
D23*
X99920000Y-74900000D03*
X102460000Y-63920000D03*
D25*
X104920000Y-63450000D03*
D20*
X105000000Y-69000000D03*
D22*
X105420000Y-69000000D03*
%TD*%
D26*
%TO.C,pmw3610*%
X94300000Y-95790000D03*
D27*
X94300000Y-94010000D03*
X94300000Y-92230000D03*
X94300000Y-90450000D03*
X94300000Y-88670000D03*
X94300000Y-86890000D03*
X94300000Y-85110000D03*
X94300000Y-83330000D03*
X105000000Y-82440000D03*
X105000000Y-84220000D03*
X105000000Y-86000000D03*
X105000000Y-87780000D03*
X105000000Y-89560000D03*
X105000000Y-91340000D03*
X105000000Y-93120000D03*
X105000000Y-94900000D03*
%TD*%
D13*
%TO.C,D3*%
X108000000Y-133190000D03*
D14*
X108000000Y-140810000D03*
%TD*%
D13*
%TO.C,D2*%
X96965000Y-105000000D03*
D14*
X104585000Y-105000000D03*
%TD*%
D13*
%TO.C,D1*%
X108000000Y-69190000D03*
D14*
X108000000Y-76810000D03*
%TD*%
%LPD*%
M02*
