%TF.GenerationSoftware,KiCad,Pcbnew,8.0.6*%
%TF.CreationDate,2025-11-06T13:39:26+09:00*%
%TF.ProjectId,tstick,74737469-636b-42e6-9b69-6361645f7063,rev?*%
%TF.SameCoordinates,Original*%
%TF.FileFunction,Copper,L2,Bot*%
%TF.FilePolarity,Positive*%
%FSLAX46Y46*%
G04 Gerber Fmt 4.6, Leading zero omitted, Abs format (unit mm)*
G04 Created by KiCad (PCBNEW 8.0.6) date 2025-11-06 13:39:26*
%MOMM*%
%LPD*%
G01*
G04 APERTURE LIST*
G04 Aperture macros list*
%AMRoundRect*
0 Rectangle with rounded corners*
0 $1 Rounding radius*
0 $2 $3 $4 $5 $6 $7 $8 $9 X,Y pos of 4 corners*
0 Add a 4 corners polygon primitive as box body*
4,1,4,$2,$3,$4,$5,$6,$7,$8,$9,$2,$3,0*
0 Add four circle primitives for the rounded corners*
1,1,$1+$1,$2,$3*
1,1,$1+$1,$4,$5*
1,1,$1+$1,$6,$7*
1,1,$1+$1,$8,$9*
0 Add four rect primitives between the rounded corners*
20,1,$1+$1,$2,$3,$4,$5,0*
20,1,$1+$1,$4,$5,$6,$7,0*
20,1,$1+$1,$6,$7,$8,$9,0*
20,1,$1+$1,$8,$9,$2,$3,0*%
G04 Aperture macros list end*
%TA.AperFunction,SMDPad,CuDef*%
%ADD10R,1.000000X3.500000*%
%TD*%
%TA.AperFunction,ComponentPad*%
%ADD11O,1.300000X1.000000*%
%TD*%
%TA.AperFunction,ComponentPad*%
%ADD12C,2.000000*%
%TD*%
%TA.AperFunction,ComponentPad*%
%ADD13R,3.200000X2.500000*%
%TD*%
%TA.AperFunction,SMDPad,CuDef*%
%ADD14RoundRect,0.225000X-0.225000X-0.250000X0.225000X-0.250000X0.225000X0.250000X-0.225000X0.250000X0*%
%TD*%
%TA.AperFunction,SMDPad,CuDef*%
%ADD15RoundRect,0.225000X0.250000X-0.225000X0.250000X0.225000X-0.250000X0.225000X-0.250000X-0.225000X0*%
%TD*%
%TA.AperFunction,ComponentPad*%
%ADD16R,1.397000X1.397000*%
%TD*%
%TA.AperFunction,SMDPad,CuDef*%
%ADD17R,0.950000X1.300000*%
%TD*%
%TA.AperFunction,ComponentPad*%
%ADD18C,1.397000*%
%TD*%
%TA.AperFunction,ComponentPad*%
%ADD19O,2.750000X1.800000*%
%TD*%
%TA.AperFunction,ComponentPad*%
%ADD20C,1.500000*%
%TD*%
%TA.AperFunction,SMDPad,CuDef*%
%ADD21R,3.000000X3.500000*%
%TD*%
%TA.AperFunction,SMDPad,CuDef*%
%ADD22R,3.300000X3.000000*%
%TD*%
%TA.AperFunction,SMDPad,CuDef*%
%ADD23R,1.300000X0.950000*%
%TD*%
%TA.AperFunction,ComponentPad*%
%ADD24RoundRect,0.250000X0.300000X-0.300000X0.300000X0.300000X-0.300000X0.300000X-0.300000X-0.300000X0*%
%TD*%
%TA.AperFunction,ComponentPad*%
%ADD25C,1.100000*%
%TD*%
%TA.AperFunction,ViaPad*%
%ADD26C,0.600000*%
%TD*%
%TA.AperFunction,Conductor*%
%ADD27C,0.200000*%
%TD*%
G04 APERTURE END LIST*
D10*
%TO.P,BT1,1,+*%
%TO.N,Bat*%
X99000000Y-51000000D03*
%TO.P,BT1,2,-*%
%TO.N,Net-(BT1--)*%
X101000000Y-51000000D03*
%TD*%
D11*
%TO.P,SW21,1,A*%
%TO.N,unconnected-(SW21-A-Pad1)*%
X101641563Y-167927176D03*
%TO.P,SW21,2,B*%
%TO.N,Net-(BT1--)*%
X99141563Y-167927176D03*
%TO.P,SW21,3,C*%
%TO.N,GND*%
X96641563Y-167927176D03*
%TD*%
D12*
%TO.P,SW4,A,A*%
%TO.N,REA*%
X92500000Y-155500000D03*
%TO.P,SW4,B,B*%
%TO.N,REB*%
X92500000Y-160500000D03*
%TO.P,SW4,C,C*%
%TO.N,GND*%
X92500000Y-158000000D03*
D13*
%TO.P,SW4,MP*%
%TO.N,N/C*%
X100000000Y-152400000D03*
X100000000Y-163600000D03*
D12*
%TO.P,SW4,S1*%
X107000000Y-160500000D03*
%TO.P,SW4,S2*%
X107000000Y-155500000D03*
%TD*%
D14*
%TO.P,C9,1*%
%TO.N,VCC*%
X106259300Y-102399600D03*
%TO.P,C9,2*%
%TO.N,GND*%
X107809300Y-102399600D03*
%TD*%
D15*
%TO.P,C7,1*%
%TO.N,+1v9*%
X110043900Y-89804100D03*
%TO.P,C7,2*%
%TO.N,GND*%
X110043900Y-88254100D03*
%TD*%
%TO.P,C5,1*%
%TO.N,Net-(pmw3610-VCP)*%
X93000000Y-80775000D03*
%TO.P,C5,2*%
%TO.N,GND*%
X93000000Y-79225000D03*
%TD*%
D14*
%TO.P,C8,1*%
%TO.N,+1v9*%
X108225000Y-95000000D03*
%TO.P,C8,2*%
%TO.N,GND*%
X109775000Y-95000000D03*
%TD*%
D16*
%TO.P,D1,1,K*%
%TO.N,Row0*%
X108000000Y-69190000D03*
D17*
X108000000Y-71225000D03*
%TO.P,D1,2,A*%
%TO.N,Net-(D1-A)*%
X108000000Y-74775000D03*
D18*
X108000000Y-76810000D03*
%TD*%
D19*
%TO.P,U1,1,P0.02_A0_D0*%
%TO.N,MOTION*%
X91589400Y-39434700D03*
%TO.P,U1,2,P0.03_A1_D1*%
%TO.N,Row0*%
X91589400Y-41974700D03*
%TO.P,U1,3,P0.28_A2_D2*%
%TO.N,Row1*%
X91589400Y-44514700D03*
%TO.P,U1,4,P0.29_A3_D3*%
%TO.N,Row2*%
X91589400Y-47054700D03*
%TO.P,U1,5,P0.04_A4_D4_SDA*%
%TO.N,SDIO*%
X91589400Y-49594700D03*
%TO.P,U1,6,P0.05_A5_D5_SCL*%
%TO.N,SCLK*%
X91589400Y-52134700D03*
%TO.P,U1,7,P1.11_D6_TX*%
%TO.N,unconnected-(U1-P1.11_D6_TX-Pad7)*%
X91589400Y-54674700D03*
%TO.P,U1,8,P1.12_D7_RX*%
%TO.N,CS*%
X107829400Y-54674700D03*
%TO.P,U1,9,P1.13_D8_SCK*%
%TO.N,REB*%
X107829400Y-52134700D03*
%TO.P,U1,10,P1.14_D9_MISO*%
%TO.N,REA*%
X107829400Y-49594700D03*
%TO.P,U1,11,P1.15_D10_MOSI*%
%TO.N,Col0*%
X107829400Y-47054700D03*
%TO.P,U1,12,3V3*%
%TO.N,VCC*%
X107829400Y-44514700D03*
%TO.P,U1,13,GND*%
%TO.N,GND*%
X107829400Y-41974700D03*
%TO.P,U1,14,5V*%
%TO.N,unconnected-(U1-5V-Pad14)*%
X107829400Y-39434700D03*
D20*
%TO.P,U1,15,NFC1_0.09*%
%TO.N,unconnected-(U1-NFC1_0.09-Pad15)*%
X103544800Y-56366700D03*
%TO.P,U1,16,NFC2_0.10*%
%TO.N,unconnected-(U1-NFC2_0.10-Pad16)*%
X105424400Y-56366700D03*
%TO.P,U1,20,BATT+*%
%TO.N,Bat*%
X95264400Y-46737700D03*
%TO.P,U1,21,BATT-*%
%TO.N,GND*%
X95264400Y-44832700D03*
%TD*%
D21*
%TO.P,SW3,1,1*%
%TO.N,Col0*%
X91614200Y-144700000D03*
D22*
X92514200Y-138420000D03*
D21*
%TO.P,SW3,2,2*%
%TO.N,Net-(D3-A)*%
X103514200Y-146900000D03*
D22*
X106114200Y-135880000D03*
%TD*%
D15*
%TO.P,R1,1*%
%TO.N,VCC*%
X90547600Y-86673800D03*
%TO.P,R1,2*%
%TO.N,Net-(pmw3610-NRESET)*%
X90547600Y-85123800D03*
%TD*%
D14*
%TO.P,C2,1*%
%TO.N,VCC*%
X106225000Y-100000000D03*
%TO.P,C2,2*%
%TO.N,GND*%
X107775000Y-100000000D03*
%TD*%
%TO.P,C1,1*%
%TO.N,Net-(pmw3610-+VCSEL)*%
X93000000Y-101000000D03*
%TO.P,C1,2*%
%TO.N,GND*%
X94550000Y-101000000D03*
%TD*%
D15*
%TO.P,C6,1*%
%TO.N,+1v9*%
X108000000Y-89775000D03*
%TO.P,C6,2*%
%TO.N,GND*%
X108000000Y-88225000D03*
%TD*%
D16*
%TO.P,D2,1,K*%
%TO.N,Row1*%
X89415000Y-128000000D03*
D23*
X91450000Y-128000000D03*
%TO.P,D2,2,A*%
%TO.N,Net-(D2-A)*%
X95000000Y-128000000D03*
D18*
X97035000Y-128000000D03*
%TD*%
D21*
%TO.P,SW2,1,1*%
%TO.N,Col0*%
X91635623Y-123531343D03*
D22*
X92535623Y-117251343D03*
D21*
%TO.P,SW2,2,2*%
%TO.N,Net-(D2-A)*%
X103535623Y-125731343D03*
D22*
X106135623Y-114711343D03*
%TD*%
D15*
%TO.P,C3,1*%
%TO.N,Net-(pmw3610-CN)*%
X109000000Y-84775000D03*
%TO.P,C3,2*%
%TO.N,Net-(pmw3610-CP)*%
X109000000Y-83225000D03*
%TD*%
%TO.P,C4,1*%
%TO.N,Net-(pmw3610-VCP)*%
X90466900Y-80761000D03*
%TO.P,C4,2*%
%TO.N,GND*%
X90466900Y-79211000D03*
%TD*%
D16*
%TO.P,D3,1,K*%
%TO.N,Row2*%
X108000000Y-140190000D03*
D17*
X108000000Y-142225000D03*
%TO.P,D3,2,A*%
%TO.N,Net-(D3-A)*%
X108000000Y-145775000D03*
D18*
X108000000Y-147810000D03*
%TD*%
D21*
%TO.P,SW1,1,1*%
%TO.N,Col0*%
X91570000Y-72700000D03*
D22*
X92470000Y-66420000D03*
D21*
%TO.P,SW1,2,2*%
%TO.N,Net-(D1-A)*%
X103470000Y-74900000D03*
D22*
X106070000Y-63880000D03*
%TD*%
D24*
%TO.P,pmw3610,1,+VCSEL*%
%TO.N,Net-(pmw3610-+VCSEL)*%
X94300000Y-95790000D03*
D25*
%TO.P,pmw3610,2,SDIO*%
%TO.N,SDIO*%
X94300000Y-94010000D03*
%TO.P,pmw3610,3,SCLK*%
%TO.N,SCLK*%
X94300000Y-92230000D03*
%TO.P,pmw3610,4,NC*%
%TO.N,unconnected-(pmw3610-NC-Pad4)*%
X94300000Y-90450000D03*
%TO.P,pmw3610,5,NCS*%
%TO.N,CS*%
X94300000Y-88670000D03*
%TO.P,pmw3610,6,VDDIO*%
%TO.N,VCC*%
X94300000Y-86890000D03*
%TO.P,pmw3610,7,NRESET*%
%TO.N,Net-(pmw3610-NRESET)*%
X94300000Y-85110000D03*
%TO.P,pmw3610,8,MOTION*%
%TO.N,MOTION*%
X94300000Y-83330000D03*
%TO.P,pmw3610,9,VCP*%
%TO.N,Net-(pmw3610-VCP)*%
X105000000Y-82440000D03*
%TO.P,pmw3610,10,PASS_T*%
%TO.N,Net-(pmw3610-+VCSEL)*%
X105000000Y-84220000D03*
%TO.P,pmw3610,11,GND*%
%TO.N,GND*%
X105000000Y-86000000D03*
%TO.P,pmw3610,12,CP*%
%TO.N,Net-(pmw3610-CP)*%
X105000000Y-87780000D03*
%TO.P,pmw3610,13,CN*%
%TO.N,Net-(pmw3610-CN)*%
X105000000Y-89560000D03*
%TO.P,pmw3610,14,VDD*%
%TO.N,+1v9*%
X105000000Y-91340000D03*
%TO.P,pmw3610,15,XYLASER*%
%TO.N,Net-(pmw3610--VCSEL)*%
X105000000Y-93120000D03*
%TO.P,pmw3610,16,-VCSEL*%
X105000000Y-94900000D03*
%TD*%
D26*
%TO.N,GND*%
X96000000Y-107000000D03*
%TO.N,Row2*%
X110000000Y-132000000D03*
%TO.N,Col0*%
X92000000Y-110000000D03*
%TO.N,Net-(BT1--)*%
X111199800Y-51375000D03*
%TO.N,GND*%
X99118500Y-101099300D03*
X107012100Y-88330000D03*
%TO.N,Net-(pmw3610-+VCSEL)*%
X93900000Y-102455700D03*
%TO.N,VCC*%
X102645900Y-99398200D03*
X107383200Y-101211400D03*
%TO.N,+1v9*%
X103463500Y-99659400D03*
%TO.N,Net-(D1-A)*%
X105000000Y-66000000D03*
X103000000Y-71000000D03*
%TO.N,Row0*%
X94137000Y-43043300D03*
X94451800Y-63670100D03*
%TO.N,Row1*%
X88210500Y-48176100D03*
%TO.N,Row2*%
X109822600Y-40704700D03*
%TO.N,REB*%
X110610400Y-57921400D03*
%TO.N,MOTION*%
X91256400Y-83776800D03*
%TO.N,CS*%
X97745800Y-61971800D03*
%TO.N,Col0*%
X89005300Y-72603400D03*
%TD*%
D27*
%TO.N,Row1*%
X91450000Y-128000000D02*
X89415000Y-128000000D01*
%TO.N,Net-(D2-A)*%
X103535623Y-125731343D02*
X101266966Y-128000000D01*
X101266966Y-128000000D02*
X97035000Y-128000000D01*
X95000000Y-128000000D02*
X97035000Y-128000000D01*
%TO.N,Col0*%
X92964200Y-138420000D02*
X92964200Y-124859920D01*
X92964200Y-124859920D02*
X91635623Y-123531343D01*
X92964200Y-138420000D02*
X91614200Y-139770000D01*
X91614200Y-139770000D02*
X91614200Y-144700000D01*
%TO.N,GND*%
X96743200Y-103193200D02*
X96743200Y-102743200D01*
X96743200Y-102743200D02*
X95000000Y-101000000D01*
X95000000Y-101000000D02*
X94550000Y-101000000D01*
X96000000Y-107000000D02*
X96000000Y-106000000D01*
X96000000Y-106000000D02*
X96743200Y-105256800D01*
X96743200Y-105256800D02*
X96743200Y-103193200D01*
%TO.N,Row2*%
X110000000Y-132000000D02*
X110000000Y-138190000D01*
X110000000Y-138190000D02*
X108000000Y-140190000D01*
X108000000Y-142225000D02*
X108000000Y-140190000D01*
%TO.N,Net-(D3-A)*%
X108000000Y-145775000D02*
X106664200Y-144439200D01*
X106664200Y-144439200D02*
X106664200Y-136952082D01*
X106664200Y-136952082D02*
X105664200Y-135952082D01*
X105664200Y-135952082D02*
X105700241Y-135916041D01*
X108000000Y-145775000D02*
X108000000Y-145990000D01*
X108000000Y-145990000D02*
X107090000Y-146900000D01*
X103514200Y-146900000D02*
X107090000Y-146900000D01*
X107090000Y-146900000D02*
X108000000Y-147810000D01*
%TO.N,Net-(D2-A)*%
X103535623Y-125731343D02*
X103535623Y-116933425D01*
X103535623Y-116933425D02*
X105721664Y-114747384D01*
%TO.N,Col0*%
X92985623Y-117251343D02*
X92985623Y-117985623D01*
X92985623Y-117985623D02*
X91635623Y-119335623D01*
X91635623Y-119335623D02*
X91635623Y-123531343D01*
X92000000Y-116265720D02*
X92985623Y-117251343D01*
X92000000Y-110000000D02*
X92000000Y-116265720D01*
%TO.N,Bat*%
X95264400Y-47001000D02*
X97211700Y-48948300D01*
X97211700Y-48948300D02*
X99000000Y-48948300D01*
X99000000Y-51000000D02*
X99000000Y-48948300D01*
X95264400Y-46737700D02*
X95264400Y-47001000D01*
%TO.N,Net-(BT1--)*%
X103786400Y-50933000D02*
X101801700Y-48948300D01*
X111199800Y-51375000D02*
X110757800Y-50933000D01*
X101000000Y-51000000D02*
X101000000Y-48948300D01*
X111297800Y-51473000D02*
X111199800Y-51375000D01*
X110757800Y-50933000D02*
X103786400Y-50933000D01*
X101801700Y-48948300D02*
X101000000Y-48948300D01*
X111199800Y-51375000D02*
X111297800Y-51473000D01*
%TO.N,GND*%
X104823300Y-78823300D02*
X93401700Y-78823300D01*
X110043900Y-88254100D02*
X110014800Y-88225000D01*
X93401700Y-78823300D02*
X93000000Y-79225000D01*
X107775000Y-100000000D02*
X109775000Y-98000000D01*
X95264400Y-44832700D02*
X95264400Y-44547400D01*
X107984900Y-100209900D02*
X107775000Y-100000000D01*
X109775000Y-98000000D02*
X109775000Y-95000000D01*
X105000000Y-86000000D02*
X106259200Y-84740800D01*
X107329400Y-41974700D02*
X106152700Y-41974700D01*
X107015700Y-103193200D02*
X107809300Y-102399600D01*
X106259200Y-80259200D02*
X104823300Y-78823300D01*
X90466900Y-79211000D02*
X92986000Y-79211000D01*
X110014800Y-88225000D02*
X108000000Y-88225000D01*
X106259200Y-84740800D02*
X106259200Y-80259200D01*
X110842800Y-89053000D02*
X110043900Y-88254100D01*
X99118500Y-101099300D02*
X94649300Y-101099300D01*
X92986000Y-79211000D02*
X93000000Y-79225000D01*
X107984900Y-102224000D02*
X107984900Y-100209900D01*
X106152700Y-41974800D02*
X106152700Y-41974700D01*
X110842800Y-93932200D02*
X110842800Y-89053000D01*
X96743200Y-103193200D02*
X107015700Y-103193200D01*
X109775000Y-95000000D02*
X110842800Y-93932200D01*
X108000000Y-88225000D02*
X107117100Y-88225000D01*
X95264400Y-44547400D02*
X97837000Y-41974800D01*
X94649300Y-101099300D02*
X94550000Y-101000000D01*
X107809300Y-102399600D02*
X107984900Y-102224000D01*
X97837000Y-41974800D02*
X106152700Y-41974800D01*
X107117100Y-88225000D02*
X107012100Y-88330000D01*
%TO.N,Net-(pmw3610-+VCSEL)*%
X93000000Y-101555700D02*
X93900000Y-102455700D01*
X93000000Y-101000000D02*
X93000000Y-101555700D01*
X104225000Y-79225000D02*
X102716100Y-79225000D01*
X105857500Y-83362500D02*
X105857500Y-80857500D01*
X88000000Y-82000000D02*
X89656300Y-83656300D01*
X90014000Y-79986000D02*
X88000000Y-82000000D01*
X102716100Y-79225000D02*
X101955100Y-79986000D01*
X89656300Y-83656300D02*
X89656300Y-97656300D01*
X101955100Y-79986000D02*
X90014000Y-79986000D01*
X105857500Y-80857500D02*
X104225000Y-79225000D01*
X105000000Y-84220000D02*
X105857500Y-83362500D01*
X89656300Y-97656300D02*
X93000000Y-101000000D01*
%TO.N,VCC*%
X94300000Y-86890000D02*
X90763800Y-86890000D01*
X105963900Y-100261100D02*
X106225000Y-100000000D01*
X102645900Y-99398200D02*
X94560100Y-99398200D01*
X90763800Y-86890000D02*
X90547600Y-86673800D01*
X93428300Y-87761700D02*
X94300000Y-86890000D01*
X103214400Y-100261100D02*
X105963900Y-100261100D01*
X107383200Y-101211400D02*
X106259300Y-100087500D01*
X106259300Y-102399600D02*
X106259300Y-100034300D01*
X106259300Y-100034300D02*
X106225000Y-100000000D01*
X93428300Y-98266400D02*
X93428300Y-87761700D01*
X106259300Y-100087500D02*
X106259300Y-100034300D01*
X102645900Y-99398200D02*
X102645900Y-99692600D01*
X102645900Y-99692600D02*
X103214400Y-100261100D01*
X94560100Y-99398200D02*
X93428300Y-98266400D01*
%TO.N,Net-(pmw3610-CN)*%
X106301000Y-88259000D02*
X106301000Y-87473900D01*
X105000000Y-89560000D02*
X106301000Y-88259000D01*
X106301100Y-87473900D02*
X109000000Y-84775000D01*
X106301000Y-87473900D02*
X106301100Y-87473900D01*
%TO.N,Net-(pmw3610-CP)*%
X105000000Y-87780000D02*
X105000000Y-87225000D01*
X105000000Y-87225000D02*
X109000000Y-83225000D01*
%TO.N,Net-(pmw3610-VCP)*%
X93000000Y-80775000D02*
X104775000Y-80775000D01*
X104775000Y-80775000D02*
X105000000Y-81000000D01*
X90466900Y-80761000D02*
X90480900Y-80775000D01*
X90480900Y-80775000D02*
X93000000Y-80775000D01*
X105000000Y-81000000D02*
X105000000Y-82440000D01*
%TO.N,+1v9*%
X108224900Y-89804100D02*
X108224900Y-91340000D01*
X108224900Y-89804100D02*
X108029100Y-89804100D01*
X108225000Y-95000000D02*
X108224900Y-95000000D01*
X108224900Y-95836550D02*
X104402050Y-99659400D01*
X110043900Y-89804100D02*
X108224900Y-89804100D01*
X108224900Y-91340000D02*
X105000000Y-91340000D01*
X104402050Y-99659400D02*
X103463500Y-99659400D01*
X108224900Y-95000000D02*
X108224900Y-95836550D01*
X108224900Y-95000000D02*
X108224900Y-91340000D01*
X108029100Y-89804100D02*
X108000000Y-89775000D01*
%TO.N,Net-(D1-A)*%
X105000000Y-66000000D02*
X105000000Y-64572082D01*
X105396700Y-74775000D02*
X105271700Y-74900000D01*
X103470000Y-71470000D02*
X103000000Y-71000000D01*
X105000000Y-64572082D02*
X105656041Y-63916041D01*
X108000000Y-74775000D02*
X105396700Y-74775000D01*
X103470000Y-74900000D02*
X103470000Y-71470000D01*
X103470000Y-74900000D02*
X105271700Y-74900000D01*
X108000000Y-76810000D02*
X108000000Y-74775000D01*
%TO.N,Row0*%
X92089400Y-41974700D02*
X93266100Y-41974700D01*
X99308600Y-63670100D02*
X102629900Y-66991400D01*
X93266100Y-41974700D02*
X93266100Y-42172400D01*
X106999800Y-68564900D02*
X106999800Y-69190000D01*
X108000000Y-69190000D02*
X108000000Y-71225000D01*
X94451800Y-63670100D02*
X99308600Y-63670100D01*
X108000000Y-69190000D02*
X106999800Y-69190000D01*
X93266100Y-42172400D02*
X94137000Y-43043300D01*
X105426300Y-66991400D02*
X106999800Y-68564900D01*
X102629900Y-66991400D02*
X105426300Y-66991400D01*
%TO.N,Row1*%
X89912700Y-46473900D02*
X88210500Y-48176100D01*
X92089400Y-44514700D02*
X89912700Y-44514700D01*
X89912700Y-44514700D02*
X89912700Y-46473900D01*
%TO.N,Row2*%
X97875900Y-40704700D02*
X93266100Y-45314500D01*
X93266100Y-45314500D02*
X93266100Y-47054700D01*
X109822600Y-40704700D02*
X97875900Y-40704700D01*
X92089400Y-47054700D02*
X93266100Y-47054700D01*
%TO.N,REB*%
X109506100Y-52134700D02*
X109506100Y-56817100D01*
X107329400Y-52134700D02*
X109506100Y-52134700D01*
X109506100Y-56817100D02*
X110610400Y-57921400D01*
%TO.N,MOTION*%
X93853200Y-83776800D02*
X94300000Y-83330000D01*
X91256400Y-83776800D02*
X93853200Y-83776800D01*
%TO.N,Net-(pmw3610-NRESET)*%
X94300000Y-85110000D02*
X90561400Y-85110000D01*
X90561400Y-85110000D02*
X90547600Y-85123800D01*
%TO.N,CS*%
X106549300Y-56745700D02*
X101323200Y-61971800D01*
X107329400Y-54674700D02*
X107329400Y-55670600D01*
X101323200Y-61971800D02*
X97745800Y-61971800D01*
X107329400Y-55670600D02*
X106549300Y-56450700D01*
X106549300Y-56450700D02*
X106549300Y-56745700D01*
%TO.N,Col0*%
X102239200Y-47054700D02*
X100000000Y-49293900D01*
X92920000Y-66420000D02*
X92920000Y-64618300D01*
X92920000Y-68221700D02*
X91570000Y-69571700D01*
X92920000Y-64351100D02*
X92920000Y-64618300D01*
X100000000Y-57271100D02*
X92920000Y-64351100D01*
X89671700Y-72603400D02*
X89768300Y-72700000D01*
X91570000Y-72700000D02*
X89768300Y-72700000D01*
X89005300Y-72603400D02*
X89671700Y-72603400D01*
X100000000Y-49293900D02*
X100000000Y-57271100D01*
X107329400Y-47054700D02*
X102239200Y-47054700D01*
X92920000Y-66420000D02*
X92920000Y-68221700D01*
X91570000Y-69571700D02*
X91570000Y-72700000D01*
%TD*%
M02*
