%TF.GenerationSoftware,KiCad,Pcbnew,8.0.6*%
%TF.CreationDate,2025-11-06T13:39:26+09:00*%
%TF.ProjectId,tstick,74737469-636b-42e6-9b69-6361645f7063,rev?*%
%TF.SameCoordinates,Original*%
%TF.FileFunction,Profile,NP*%
%FSLAX46Y46*%
G04 Gerber Fmt 4.6, Leading zero omitted, Abs format (unit mm)*
G04 Created by KiCad (PCBNEW 8.0.6) date 2025-11-06 13:39:26*
%MOMM*%
%LPD*%
G01*
G04 APERTURE LIST*
%TA.AperFunction,Profile*%
%ADD10C,0.050000*%
%TD*%
%TA.AperFunction,Profile*%
%ADD11C,0.120000*%
%TD*%
%TA.AperFunction,Profile*%
%ADD12C,0.100000*%
%TD*%
G04 APERTURE END LIST*
D10*
X87000000Y-36000000D02*
X112000000Y-36000000D01*
X112000000Y-171000000D01*
X87000000Y-171000000D01*
X87000000Y-36000000D01*
D11*
%TO.C,U1*%
X95001647Y-46304147D02*
X95001647Y-45262747D01*
X95687447Y-44576947D02*
X97287647Y-44576947D01*
X97287647Y-46989947D02*
X95687447Y-46989947D01*
X97668647Y-44957947D02*
X97668647Y-46608947D01*
X103281647Y-55946653D02*
X103281647Y-54346453D01*
X103662647Y-53965453D02*
X105313647Y-53965453D01*
X105008847Y-56632453D02*
X103967447Y-56632453D01*
X105694647Y-54346453D02*
X105694647Y-55946653D01*
X95001647Y-46304147D02*
G75*
G02*
X95687447Y-46989947I247753J-438047D01*
G01*
X95687447Y-44576947D02*
G75*
G02*
X95001647Y-45262747I-438047J-247753D01*
G01*
X97287647Y-44576947D02*
G75*
G02*
X97668647Y-44957947I8J-380992D01*
G01*
X97668647Y-46608947D02*
G75*
G02*
X97287647Y-46989947I-380996J-4D01*
G01*
X103281647Y-54346453D02*
G75*
G02*
X103662647Y-53965447I381003J3D01*
G01*
X103281647Y-55946653D02*
G75*
G02*
X103967447Y-56632453I247753J-438047D01*
G01*
X105008847Y-56632453D02*
G75*
G02*
X105694651Y-55946646I438053J247753D01*
G01*
X105313647Y-53965453D02*
G75*
G02*
X105694647Y-54346453I3J-380997D01*
G01*
%TO.C,pmw3610*%
D12*
X95350000Y-81610000D02*
X103950000Y-81610000D01*
X103950000Y-98570000D01*
X95350000Y-98570000D01*
X95350000Y-81610000D01*
%TD*%
M02*
